<?xml version="1.0" standalone="no"?>
<!DOCTYPE svg PUBLIC "-//W3C//DTD SVG 20010904//EN"
 "http://www.w3.org/TR/2001/REC-SVG-20010904/DTD/svg10.dtd">
<svg version="1.0" xmlns="http://www.w3.org/2000/svg"
 width="1920.000000pt" height="1097.000000pt" viewBox="0 0 1920.000000 1097.000000"
 preserveAspectRatio="xMidYMid meet">
<metadata>
Created by potrace 1.16, written by Peter Selinger 2001-2019
</metadata>
<g transform="translate(0.000000,1097.000000) scale(0.100000,-0.100000)"
fill="#000000" stroke="none">
<path d="M0 10890 l0 -79 113 53 c61 29 135 65 162 79 l50 26 -162 1 -163 0 0
-80z"/>
<path d="M347 10962 c-3 -4 -82 -43 -176 -87 l-170 -80 -1 -92 0 -92 147 68
c180 83 472 201 569 231 39 12 111 30 160 40 l89 19 -307 0 c-169 1 -309 -2
-311 -7z"/>
<path d="M1060 10963 c-247 -27 -514 -116 -942 -314 l-117 -54 -1 -98 0 -99
38 22 c185 111 377 199 572 264 202 67 306 86 510 93 211 7 346 -13 545 -77
252 -82 376 -167 439 -299 31 -66 31 -67 30 -226 0 -213 -25 -311 -179 -725
-187 -501 -230 -751 -155 -906 53 -108 154 -187 435 -338 231 -125 353 -207
460 -307 108 -103 167 -181 221 -294 93 -193 129 -393 128 -720 0 -167 -4
-242 -17 -313 -86 -455 -370 -780 -758 -869 -107 -24 -346 -23 -514 2 -94 14
-182 20 -320 20 -216 0 -236 -4 -450 -87 -213 -82 -315 -77 -491 24 -80 46
-139 88 -399 287 l-90 69 -3 -195 -2 -195 67 -72 c80 -86 136 -187 188 -340
75 -225 151 -352 292 -487 104 -101 219 -174 363 -232 103 -41 107 -42 225
-42 104 0 127 3 170 23 60 28 100 64 128 117 31 56 29 216 -3 375 -16 75 -24
151 -24 220 -1 94 2 111 25 155 57 112 146 146 459 175 118 10 249 26 290 35
458 94 786 415 914 895 54 200 61 281 61 735 0 416 0 421 -23 477 -66 164
-250 311 -747 598 -88 50 -187 111 -221 135 -175 125 -268 311 -248 499 22
209 72 362 261 796 253 580 291 651 392 742 64 58 145 100 366 188 288 116
422 191 534 297 l56 53 -225 -4 c-124 -2 -252 -8 -284 -13 -37 -6 -76 -6 -105
0 -25 6 -209 12 -408 14 -351 4 -364 3 -403 -17 -23 -12 -76 -26 -120 -32 -80
-12 -139 -8 -500 37 -105 13 -334 17 -420 8z"/>
<path d="M1675 10948 c162 -21 339 -19 395 5 32 14 13 15 -250 15 l-285 -1
140 -19z"/>
<path d="M3556 10936 c-84 -110 -315 -245 -641 -376 -246 -98 -304 -133 -374
-225 -54 -72 -100 -159 -174 -330 -36 -82 -116 -267 -179 -410 -126 -285 -166
-393 -196 -536 -43 -199 -38 -308 19 -427 57 -118 145 -189 454 -367 304 -175
536 -340 622 -443 61 -73 81 -109 103 -197 18 -70 20 -111 20 -404 0 -349 -8
-483 -40 -654 -79 -419 -325 -773 -655 -944 -171 -88 -317 -123 -643 -153
-142 -14 -232 -27 -270 -40 -70 -24 -126 -80 -143 -141 -15 -57 -7 -183 22
-324 32 -154 32 -311 0 -377 -98 -203 -365 -245 -658 -104 -301 145 -488 358
-601 686 -22 63 -52 141 -66 174 -27 61 -99 168 -135 200 l-21 19 0 -506 0
-507 26 10 c43 17 147 12 209 -10 32 -11 162 -71 289 -134 337 -167 481 -215
698 -236 229 -22 604 38 644 102 29 46 21 199 -20 403 -34 169 -40 234 -26
313 19 116 78 194 195 261 22 13 127 61 233 107 214 93 344 165 454 252 169
135 338 348 432 545 77 161 112 279 200 677 42 192 66 255 116 313 101 115
262 65 467 -144 132 -136 243 -287 362 -494 237 -412 289 -687 198 -1030 -19
-71 -55 -201 -80 -287 -72 -244 -88 -331 -94 -518 -10 -316 41 -481 251 -809
195 -305 256 -438 283 -619 28 -195 -4 -337 -143 -621 -157 -321 -177 -392
-177 -621 -1 -151 2 -178 33 -320 29 -131 34 -176 35 -286 0 -126 -1 -133 -30
-189 -56 -109 -152 -155 -325 -155 -180 0 -364 56 -499 150 -93 66 -155 129
-282 286 -179 220 -220 255 -317 274 -64 12 -124 -1 -409 -89 -240 -75 -390
-111 -460 -111 -148 0 -289 78 -397 223 -65 86 -101 155 -201 387 -93 216
-149 310 -244 412 -103 110 -214 182 -351 230 -30 10 -170 39 -310 64 -373 65
-509 106 -688 208 -35 20 -66 36 -68 36 -2 0 -4 -47 -4 -105 l0 -105 49 -25
c160 -80 337 -131 626 -180 319 -53 443 -101 570 -217 124 -114 186 -221 271
-471 82 -242 134 -441 136 -517 2 -148 -28 -202 -227 -410 -116 -121 -172
-199 -225 -314 -70 -150 -100 -332 -100 -600 0 -195 -4 -186 86 -186 l74 0 -6
87 c-12 163 27 359 97 495 75 144 218 257 370 293 81 19 208 19 279 0 137 -36
318 -155 459 -300 118 -122 145 -174 146 -280 0 -93 -18 -138 -97 -236 l-48
-59 198 0 198 0 41 43 c203 210 236 484 76 628 -21 19 -96 74 -166 124 -179
124 -246 205 -247 298 0 124 147 215 334 205 130 -7 204 -47 354 -192 176
-168 260 -217 428 -250 134 -27 771 -96 879 -96 63 0 121 6 154 16 70 20 134
80 160 147 11 29 20 46 20 39 1 -7 -6 -28 -13 -47 -40 -95 -116 -147 -247
-166 -68 -10 -114 -7 -450 31 -425 47 -516 61 -612 95 -106 37 -169 80 -310
213 -163 154 -231 191 -361 199 -194 13 -346 -91 -322 -219 15 -83 91 -167
246 -271 135 -91 212 -164 241 -230 64 -143 1 -367 -145 -517 l-49 -50 169 0
169 1 42 52 c23 29 81 102 128 164 103 133 205 233 277 269 60 30 154 64 177
64 9 0 -20 -13 -64 -28 -158 -54 -230 -113 -403 -334 -64 -83 -123 -159 -131
-169 -13 -18 -9 -19 126 -19 l139 0 100 98 c55 55 111 104 124 111 17 8 14 3
-10 -16 -19 -15 -71 -63 -115 -107 l-80 -81 157 -3 156 -2 49 28 c109 64 156
76 303 76 122 1 143 -2 215 -27 44 -16 85 -33 90 -38 6 -6 -15 -1 -45 10 -192
71 -368 68 -522 -10 -32 -16 -58 -31 -58 -34 0 -3 154 -5 343 -5 302 1 339 2
317 15 -14 8 -20 14 -14 15 5 0 19 -7 30 -15 16 -12 100 -14 561 -15 l541 0 6
27 c36 176 60 540 46 680 -26 254 -68 390 -240 783 -164 374 -191 473 -192
695 0 157 10 233 67 480 75 322 93 478 75 648 -21 204 -67 322 -244 626 -130
222 -163 288 -209 411 -46 124 -67 238 -67 365 0 174 23 268 164 673 91 261
139 519 140 757 1 214 -22 274 -192 488 -60 76 -149 195 -197 265 -203 292
-281 396 -419 562 -287 343 -366 491 -366 686 0 179 87 334 243 435 83 54 147
73 242 73 99 0 168 -28 236 -98 110 -111 155 -249 219 -658 53 -348 76 -443
195 -833 26 -82 57 -198 70 -257 35 -155 71 -256 113 -311 52 -68 183 -157
357 -242 365 -179 677 -266 1056 -295 164 -12 339 -3 604 30 352 44 593 49
865 15 193 -24 597 -92 680 -116 198 -54 342 -160 390 -284 34 -89 39 -235 11
-345 -57 -226 -204 -410 -394 -494 -172 -76 -303 -95 -712 -106 -360 -10 -472
-20 -614 -56 -277 -70 -473 -254 -537 -504 -22 -85 -22 -259 1 -365 24 -115
56 -203 157 -435 157 -358 201 -522 202 -750 0 -149 -15 -230 -60 -328 -67
-142 -158 -237 -414 -432 -208 -157 -316 -260 -391 -373 -82 -123 -104 -197
-103 -352 0 -100 4 -130 23 -177 47 -119 165 -263 335 -406 237 -200 269 -237
297 -345 7 -31 8 -59 1 -91 l-10 -46 6064 0 6064 0 0 5485 0 5485 -3300 0
c-1815 0 -3300 -3 -3300 -6 0 -3 11 -22 25 -42 62 -90 89 -267 61 -393 -37
-166 -169 -353 -321 -454 -259 -172 -732 -177 -900 -10 -112 113 -106 263 19
450 59 87 264 305 386 408 l55 47 -120 0 -120 0 -186 -183 c-102 -100 -203
-204 -225 -232 -45 -59 -60 -76 -49 -55 27 50 127 159 278 304 l172 166 -107
0 -108 0 -92 -81 -93 -81 85 81 85 80 -112 1 -113 0 -107 -86 c-188 -151 -249
-215 -308 -325 -38 -70 -48 -74 -14 -6 56 110 127 186 302 325 l109 87 -131 3
c-128 3 -133 2 -169 -24 l-37 -26 30 26 30 26 -171 0 -172 0 -58 -62 c-31 -35
-68 -87 -82 -116 -53 -116 -54 -129 -62 -592 -10 -535 -16 -572 -147 -875
-131 -301 -162 -374 -256 -595 -52 -124 -141 -324 -197 -444 -56 -121 -108
-249 -117 -285 -31 -133 -7 -231 149 -596 178 -419 340 -721 513 -955 135
-182 173 -263 285 -600 48 -146 104 -303 124 -348 20 -46 33 -89 29 -95 -3 -7
-3 -9 2 -5 11 11 47 -50 39 -65 -4 -7 -4 -9 1 -5 4 4 28 -25 53 -65 24 -39 56
-84 70 -99 14 -16 23 -28 19 -28 -4 0 16 -23 44 -50 35 -34 49 -56 45 -67 -5
-12 -4 -13 7 -5 19 16 61 -30 44 -48 -9 -9 -8 -11 3 -9 15 3 80 -27 80 -37 0
-3 -5 -2 -12 2 -7 4 -8 3 -4 -4 4 -7 13 -12 20 -12 18 0 49 -37 42 -49 -10
-16 -37 -1 -47 26 -5 13 -13 21 -19 18 -5 -3 -10 -1 -10 5 0 6 -4 9 -8 6 -12
-7 -124 108 -115 119 5 4 3 5 -3 2 -14 -8 -37 17 -26 27 4 4 0 6 -8 4 -8 -2
-14 3 -12 10 1 8 -2 11 -7 8 -12 -8 -53 43 -45 55 3 5 -1 9 -8 9 -15 1 -35 26
-91 118 -97 160 -147 279 -257 612 -86 263 -126 350 -228 495 -257 365 -357
547 -544 984 -160 375 -185 458 -175 584 6 84 26 139 137 377 73 156 264 593
310 710 10 25 53 124 95 220 170 383 186 471 185 1015 -1 371 5 420 65 541 19
39 53 91 76 117 l41 47 -201 0 -200 0 -23 -72 c-31 -98 -29 -218 6 -411 65
-357 71 -543 26 -755 -18 -83 -22 -55 -4 34 22 116 29 293 15 414 -7 58 -28
200 -48 315 -39 233 -40 303 -3 409 11 33 20 61 20 63 0 1 -168 3 -373 3
l-374 0 20 -82 c17 -70 20 -117 19 -298 0 -341 -28 -565 -116 -950 -72 -312
-78 -345 -79 -480 -1 -98 -2 -107 -9 -60 -14 101 4 226 82 572 83 362 112 602
112 938 1 127 -21 323 -39 353 -2 4 -61 7 -130 7 l-125 0 7 -27 c19 -73 45
-244 60 -393 31 -292 5 -536 -84 -793 -27 -78 -74 -214 -105 -302 -67 -194
-83 -293 -66 -414 17 -124 41 -190 135 -366 209 -391 258 -513 259 -650 1 -77
-3 -98 -26 -147 -99 -213 -453 -525 -763 -673 -135 -65 -194 -79 -296 -72 -88
6 -137 25 -323 129 -304 169 -423 208 -776 253 -107 14 -222 30 -255 36 -270
47 -467 140 -602 283 -88 92 -123 155 -212 380 -77 195 -104 248 -159 308 -63
69 -122 86 -159 46 -55 -61 -79 -175 -70 -333 9 -139 27 -230 108 -530 152
-563 210 -723 314 -870 155 -218 406 -336 746 -352 225 -10 370 17 864 161
294 86 388 102 492 87 43 -6 163 -41 268 -76 224 -76 376 -111 694 -160 447
-70 611 -132 736 -283 135 -162 182 -343 200 -762 13 -282 55 -426 195 -655
165 -270 209 -367 231 -513 10 -66 10 -94 -1 -152 -7 -38 -17 -70 -22 -70 -5
0 -7 -4 -4 -9 9 -13 -23 -83 -34 -76 -5 3 -7 0 -4 -8 3 -8 -2 -22 -11 -30 -9
-9 -17 -20 -18 -24 -1 -4 -5 -7 -9 -6 -4 2 -5 -3 -2 -10 2 -7 -8 -24 -22 -37
-15 -14 -24 -19 -19 -11 5 9 4 12 -3 7 -6 -4 -9 -13 -6 -20 5 -12 -29 -44
-132 -125 -32 -26 -107 -60 -117 -55 -7 4 -9 4 -5 -1 4 -4 -5 -15 -20 -23 -26
-14 -137 -58 -157 -62 -5 -1 -21 -7 -35 -12 -14 -6 -37 -11 -52 -12 -14 0 -24
-3 -22 -5 2 -3 -80 -29 -183 -58 -393 -113 -630 -185 -701 -215 -92 -38 -174
-112 -274 -247 -39 -53 -76 -100 -82 -106 -7 -5 -44 -55 -84 -110 -131 -184
-187 -329 -199 -515 -14 -232 60 -402 193 -441 75 -22 204 -15 298 15 44 14
83 23 87 20 4 -2 9 1 11 6 2 6 13 12 26 13 12 0 22 4 22 8 0 7 88 42 107 42 7
0 13 4 13 8 0 5 7 5 17 2 9 -4 14 -2 10 3 -7 13 180 87 199 80 9 -3 12 -1 9 4
-3 6 -4 10 -2 10 3 0 49 9 104 20 54 11 112 19 128 19 17 -1 53 2 82 6 56 8
107 0 98 -15 -3 -6 1 -10 9 -10 9 0 16 4 16 10 0 5 11 9 25 8 17 -2 25 -8 23
-17 -3 -12 -21 -15 -103 -13 -55 1 -125 5 -155 7 -39 3 -48 2 -30 -4 24 -9 24
-9 -7 -10 -17 -1 -34 5 -36 12 -4 8 -6 7 -6 -3 -1 -17 -105 -45 -124 -33 -6 4
-7 1 -2 -7 6 -10 4 -12 -8 -7 -10 3 -17 3 -17 -2 0 -5 -14 -11 -30 -15 -29 -5
-183 -66 -223 -87 -10 -5 -23 -7 -29 -3 -7 4 -8 3 -4 -4 4 -7 3 -12 -3 -12 -5
0 -13 5 -16 10 -3 6 -12 10 -18 9 -9 0 -9 -2 1 -6 14 -6 16 -23 2 -23 -5 0
-33 -11 -63 -24 -139 -64 -323 -87 -423 -53 -152 52 -234 230 -221 477 10 190
71 345 210 538 184 254 286 375 360 426 65 44 235 102 617 212 162 46 326 93
363 103 37 11 75 17 85 14 9 -3 14 -2 9 2 -8 10 82 47 95 39 4 -3 8 -1 8 4 0
5 21 17 48 27 26 10 75 35 109 55 40 25 65 34 71 28 6 -6 12 -5 17 3 5 8 4 10
-3 5 -26 -16 -10 13 21 37 46 36 107 94 107 101 0 4 15 31 33 59 56 88 72 147
72 272 0 122 -10 162 -78 305 -22 47 -39 87 -37 89 1 2 -3 7 -8 10 -16 10
-137 212 -186 309 -84 168 -108 283 -126 608 -20 368 -67 524 -203 670 -122
131 -266 182 -702 249 -323 49 -433 74 -680 157 -196 66 -217 71 -315 75 -98
5 -115 2 -260 -36 -85 -22 -216 -59 -290 -81 -171 -51 -383 -104 -480 -121
-111 -19 -367 -16 -465 5 -341 74 -562 241 -690 520 -64 141 -106 276 -244
781 -80 294 -94 374 -95 525 -1 239 74 377 192 355 47 -9 133 -92 182 -175 21
-36 71 -147 111 -248 99 -252 167 -352 309 -449 154 -105 300 -147 683 -198
391 -53 506 -90 826 -268 193 -108 231 -122 341 -121 99 1 177 26 311 100 215
118 510 370 620 530 123 179 94 340 -138 766 -168 309 -188 369 -187 553 1
154 13 204 108 458 122 326 146 435 153 692 6 194 -8 359 -49 578 l-22 117
-93 0 c-51 0 -93 -2 -93 -5 0 -2 13 -85 29 -182 44 -269 55 -388 48 -542 -7
-166 -36 -279 -108 -430 -45 -96 -176 -321 -186 -321 -5 0 -8 -4 65 115 80
131 156 292 181 383 58 211 51 405 -31 910 l-12 72 -88 0 c-48 0 -88 -4 -88
-8 0 -5 9 -80 20 -168 29 -242 42 -411 35 -484 -17 -179 -66 -312 -154 -418
-62 -74 -137 -132 -265 -203 -186 -105 -211 -138 -204 -273 4 -75 12 -108 43
-186 65 -165 173 -365 292 -543 165 -247 216 -358 238 -518 14 -110 -37 -259
-118 -341 -111 -113 -281 -152 -485 -112 -109 22 -99 29 13 9 212 -37 362 1
471 117 71 76 98 144 102 258 7 177 -39 297 -205 546 -177 264 -277 455 -345
658 -25 75 -29 102 -25 153 8 105 39 137 266 269 205 120 304 252 347 464 21
107 16 311 -17 583 l-24 197 -101 0 -101 0 -5 -202 c-7 -286 -40 -411 -132
-503 -87 -87 -180 -110 -511 -125 -237 -10 -316 -24 -405 -68 -179 -90 -129
-232 270 -763 196 -260 341 -478 450 -674 58 -104 17 -46 -70 100 -112 189
-197 313 -376 550 -182 243 -257 353 -325 480 -42 79 -52 108 -57 161 l-5 64
44 43 c83 83 205 112 534 127 121 5 245 16 275 23 143 35 224 120 265 277 17
65 34 281 35 428 l0 82 -120 0 c-106 0 -121 -2 -126 -17 -108 -345 -260 -443
-687 -444 -249 -1 -338 20 -724 172 -140 55 -339 125 -442 155 -254 76 -370
114 -376 125 -4 5 -112 9 -249 9 l-243 0 -34 -87 c-45 -118 -112 -216 -227
-337 -119 -123 -163 -178 -191 -234 -71 -140 -4 -264 133 -248 90 10 183 67
316 191 66 62 144 129 174 149 159 105 408 152 586 111 203 -48 391 -211 390
-341 -1 -56 -30 -113 -119 -233 -139 -187 -175 -283 -175 -461 1 -133 17 -216
94 -486 153 -530 255 -733 429 -848 78 -52 184 -90 294 -105 167 -23 859 -6
955 24 164 50 196 196 91 423 -43 94 -44 110 0 24 78 -155 92 -289 39 -370
-31 -45 -103 -86 -183 -102 -27 -5 -230 -12 -450 -16 -445 -7 -492 -2 -640 55
-232 89 -363 295 -513 801 -113 380 -132 469 -132 603 0 170 37 264 176 457
86 118 124 191 124 236 0 50 -47 130 -111 188 -111 100 -248 148 -424 149
-227 1 -383 -66 -577 -249 -60 -57 -131 -119 -156 -136 -178 -123 -347 -95
-360 57 -8 101 31 168 202 346 140 146 197 231 250 372 l25 67 -142 0 -142 0
-30 -42 c-16 -23 -90 -107 -165 -186 -168 -180 -229 -256 -280 -353 -49 -95
-70 -179 -70 -291 0 -119 19 -207 89 -418 41 -120 61 -197 61 -228 0 -92 -45
-131 -395 -336 -314 -184 -442 -284 -555 -435 -140 -186 -217 -446 -190 -641
26 -193 93 -314 326 -596 199 -239 282 -358 456 -649 302 -506 381 -712 381
-995 0 -161 -18 -257 -93 -495 -105 -329 -126 -447 -117 -645 12 -248 73 -416
279 -768 155 -264 214 -408 244 -588 17 -104 14 -282 -6 -354 l-10 -35 5 40
c14 133 16 230 6 310 -25 195 -74 319 -238 606 -142 249 -197 360 -233 470
-43 132 -62 245 -62 383 0 146 21 257 94 494 102 334 110 372 115 537 8 236
-27 382 -153 634 -175 351 -424 741 -650 1016 -204 249 -230 286 -286 402 -64
132 -82 217 -75 353 7 125 32 220 91 346 61 128 116 206 215 304 110 109 163
146 472 331 292 174 325 198 350 253 26 58 24 78 -22 212 -144 422 -153 562
-45 779 53 106 109 179 265 341 63 65 137 146 164 179 l50 60 -108 3 -109 3
-169 -168 c-238 -238 -288 -308 -344 -490 -27 -87 -27 -91 -28 -388 -2 -354
-8 -394 -90 -519 -45 -72 -117 -143 -290 -287 -286 -239 -405 -396 -512 -674
-110 -283 -137 -484 -83 -627 33 -89 95 -165 335 -408 237 -241 334 -362 477
-590 226 -360 330 -573 384 -787 24 -92 28 -128 27 -243 0 -157 -17 -243 -95
-495 -103 -335 -131 -515 -109 -711 29 -254 76 -378 261 -689 187 -314 247
-460 272 -661 21 -175 -8 -318 -128 -641 -140 -376 -160 -565 -89 -862 14 -57
23 -106 21 -108 -2 -2 -15 44 -29 104 -80 336 -63 464 123 967 72 194 90 282
90 441 0 257 -44 376 -283 778 -204 344 -267 554 -254 841 8 163 30 268 112
537 36 117 72 253 80 303 30 181 14 378 -42 549 -71 213 -331 670 -533 937
-69 91 -272 312 -364 397 -157 145 -244 259 -281 367 -48 145 15 451 150 731
107 221 211 346 455 548 241 200 302 270 353 403 21 56 22 74 22 354 1 303 3
326 37 445 47 162 99 237 327 468 l175 177 -129 0 -130 0 -141 -109 c-169
-132 -241 -207 -289 -303 -52 -106 -64 -183 -75 -484 -12 -299 -24 -384 -75
-491 -54 -116 -87 -157 -289 -358 -112 -111 -215 -224 -249 -272 -32 -45 -106
-173 -163 -285 -58 -111 -125 -230 -149 -264 -151 -211 -293 -220 -650 -42
-208 104 -341 204 -407 308 -141 222 -61 589 215 980 248 352 446 530 892 800
384 233 494 328 559 483 l15 37 -143 0 -144 0 -26 -34z m7081 -273 c-66 -132
-76 -197 -87 -568 -5 -193 -15 -363 -25 -427 -14 -98 -81 -336 -91 -326 -2 3
7 38 21 79 55 161 66 242 75 584 10 339 18 428 51 540 20 67 64 165 74 165 3
0 -5 -21 -18 -47z m2912 -803 c28 -12 48 -26 45 -31 -3 -5 3 -9 14 -9 17 0 55
-31 50 -41 -2 -2 -1 -3 1 -2 11 7 42 -21 37 -33 -3 -8 1 -14 10 -14 10 0 12 5
7 13 -4 6 19 -10 50 -37 55 -47 70 -64 45 -51 -7 4 -4 0 6 -9 10 -8 22 -13 26
-11 4 3 13 -2 20 -10 7 -8 9 -15 5 -15 -5 0 -1 -8 7 -17 8 -10 18 -25 22 -33
5 -8 -4 0 -19 18 -15 18 -31 29 -37 26 -7 -4 -8 -2 -4 4 3 6 -3 16 -14 22 -11
6 -20 7 -20 3 0 -4 -5 0 -11 10 -5 9 -8 21 -4 26 3 5 0 13 -6 17 -7 4 -9 3 -5
-4 12 -20 -13 -22 -27 -2 -7 11 -17 17 -22 12 -5 -4 -5 -1 -1 6 4 6 2 12 -4
12 -6 0 -22 11 -35 25 -14 13 -25 21 -25 18 0 -3 -7 0 -15 7 -8 7 -12 17 -8
23 3 5 1 7 -5 3 -6 -3 -40 10 -77 30 -71 39 -58 38 -222 21 -11 -1 -19 -6 -15
-11 3 -5 -2 -6 -12 -3 -11 4 -15 3 -11 -4 4 -6 -2 -13 -14 -16 -12 -3 -21 -8
-21 -12 0 -3 -18 -17 -40 -31 -22 -14 -40 -29 -40 -33 0 -5 -8 -6 -17 -3 -10
4 -14 4 -10 0 7 -8 -21 -44 -34 -44 -4 0 -20 -11 -35 -25 -80 -74 -235 -152
-379 -191 -53 -14 -184 -34 -320 -49 -126 -14 -286 -32 -354 -40 -428 -53
-628 -192 -686 -479 -21 -103 -49 -613 -48 -876 1 -405 75 -698 218 -859 17
-18 29 -37 27 -42 -1 -5 1 -8 5 -7 15 4 93 -55 86 -65 -3 -6 -1 -7 5 -3 15 9
55 -18 44 -29 -4 -5 -2 -5 4 -2 12 7 168 -46 160 -54 -2 -2 8 -4 22 -5 15 0
65 -6 112 -13 113 -16 179 -19 215 -9 17 5 48 6 70 2 l40 -7 -45 -13 c-25 -8
-58 -14 -75 -13 -16 1 -38 -2 -47 -6 -58 -24 -438 59 -438 97 0 5 -4 7 -9 3
-5 -3 -15 0 -23 7 -7 7 -20 14 -28 16 -8 2 -16 8 -18 13 -2 5 -9 9 -16 9 -21
0 -126 100 -166 160 -51 75 -80 143 -113 260 -56 199 -83 454 -74 680 20 448
38 698 57 779 54 225 179 354 422 434 116 39 211 54 569 92 453 48 561 83 772
247 142 110 235 170 250 162 6 -4 8 -3 4 2 -13 14 64 33 119 29 28 -2 74 -13
103 -25z m-7721 -159 c59 -30 116 -112 216 -309 119 -238 178 -376 306 -717
129 -346 198 -488 282 -580 136 -148 287 -207 598 -234 69 -7 177 -16 240 -21
63 -6 158 -17 210 -26 110 -18 312 -65 306 -72 -3 -2 -53 8 -113 22 -155 37
-271 53 -498 71 -232 18 -353 36 -450 66 -200 61 -333 182 -435 394 -27 55
-98 233 -159 395 -128 344 -166 432 -308 712 -88 175 -112 214 -153 251 -84
76 -179 84 -338 31 -162 -54 -433 -206 -505 -283 -70 -75 -68 -99 37 -419 96
-291 115 -372 156 -660 55 -377 105 -583 215 -891 125 -350 230 -586 323 -724
88 -132 232 -259 392 -346 41 -22 70 -41 65 -41 -19 0 -169 90 -242 146 -187
143 -303 323 -452 702 -175 445 -252 724 -306 1102 -47 330 -85 491 -173 746
-97 277 -101 324 -29 395 87 88 407 259 570 304 74 21 190 14 245 -14z m1129
-165 c76 -20 134 -51 224 -117 216 -160 403 -387 516 -625 116 -245 88 -398
-87 -486 -99 -50 -172 -68 -306 -75 -162 -9 -263 21 -373 108 -178 142 -316
517 -315 859 0 148 20 214 84 277 70 68 152 87 257 59z m-1180 -347 c120 -58
243 -210 347 -430 30 -63 90 -209 135 -326 91 -240 124 -311 187 -400 146
-206 356 -292 809 -333 122 -12 363 -54 374 -66 3 -4 -5 -4 -19 -1 -80 19
-218 39 -385 57 -104 12 -224 28 -265 36 -257 51 -432 158 -545 334 -51 78
-81 145 -184 413 -161 418 -300 631 -460 709 -102 49 -217 33 -292 -42 -91
-91 -115 -227 -98 -575 20 -434 58 -633 204 -1065 123 -364 230 -608 323 -739
208 -291 537 -436 987 -435 173 0 214 5 525 65 362 69 473 82 660 76 91 -3
181 -10 200 -16 l35 -11 -40 5 c-22 3 -105 8 -185 12 -174 7 -309 -8 -640 -72
-411 -80 -549 -90 -770 -60 -432 58 -714 254 -890 620 -102 209 -262 660 -329
926 -70 273 -109 647 -98 932 6 181 27 253 93 326 95 106 190 123 321 60z
m-1061 -309 c69 -30 125 -80 178 -157 86 -126 132 -271 186 -588 51 -302 85
-442 172 -705 64 -196 217 -582 270 -680 206 -385 611 -616 1178 -671 130 -12
369 -7 490 11 425 62 722 82 935 61 145 -14 492 -64 477 -69 -5 -1 -88 8 -184
22 -284 41 -397 49 -588 42 -173 -6 -228 -12 -550 -57 -136 -20 -206 -24 -400
-23 -213 1 -248 3 -375 28 -339 65 -604 194 -795 386 -141 141 -214 269 -347
609 -156 396 -224 636 -293 1026 -46 256 -70 358 -110 457 -57 141 -136 240
-228 285 -52 26 -66 28 -167 27 -94 -1 -121 -5 -185 -29 -337 -124 -544 -394
-543 -705 0 -55 8 -123 17 -160 28 -108 107 -254 211 -390 324 -423 341 -449
568 -833 243 -410 312 -564 343 -769 30 -197 2 -389 -101 -698 -101 -301 -133
-476 -120 -650 18 -236 80 -397 287 -755 187 -321 238 -480 238 -742 0 -105
-6 -163 -25 -258 -13 -67 -29 -133 -35 -146 -12 -27 -13 -33 22 126 25 117 35
345 18 456 -14 98 -65 260 -110 350 -18 35 -78 143 -133 239 -229 400 -285
573 -274 850 6 156 19 214 107 485 97 300 111 366 117 545 11 320 -38 453
-375 1013 -226 378 -267 437 -482 707 -219 276 -297 455 -288 665 8 170 76
320 211 462 195 205 507 312 683 233z m1984 -1490 c422 -41 540 -65 686 -135
156 -75 245 -196 216 -293 -38 -128 -239 -255 -499 -318 -77 -18 -332 -21
-412 -4 -83 18 -205 70 -276 119 -91 62 -157 144 -196 245 -55 142 -50 270 12
340 61 70 140 78 469 46z m-365 -1106 c39 -14 126 -37 195 -51 115 -25 143
-27 360 -27 225 0 245 1 455 37 477 80 670 85 1069 27 126 -19 224 -36 218
-38 -6 -2 -107 11 -224 28 -376 56 -563 53 -1018 -20 -297 -47 -368 -53 -570
-47 -132 4 -213 12 -284 27 -108 23 -272 73 -296 91 -12 9 -11 10 5 4 11 -4
52 -18 90 -31z m4882 -3234 c157 -69 180 -205 46 -271 -40 -20 -63 -24 -138
-24 -81 0 -95 3 -143 29 -146 81 -126 237 36 283 58 16 141 9 199 -17z"/>
<path d="M6815 9531 c-144 -35 -201 -163 -184 -411 22 -319 135 -615 286 -751
103 -93 195 -124 363 -123 228 1 391 69 452 188 83 163 -82 525 -371 815 -155
154 -288 243 -416 276 -64 16 -83 17 -130 6z m376 -626 c88 -58 127 -191 74
-253 -32 -38 -65 -46 -112 -27 -82 35 -132 112 -133 203 0 46 4 58 30 84 27
26 36 30 67 25 20 -4 53 -18 74 -32z"/>
<path d="M7073 8918 c-72 -35 -44 -202 44 -263 46 -30 101 -33 134 -6 20 16
24 28 24 78 0 48 -5 67 -27 100 -50 75 -126 115 -175 91z"/>
<path d="M6317 7388 c-139 -37 -167 -238 -61 -439 72 -137 222 -242 413 -290
73 -18 104 -20 250 -17 144 4 178 8 256 32 209 63 389 185 415 284 28 108 -56
219 -225 297 -130 60 -233 79 -646 120 -271 27 -342 29 -402 13z"/>
<path d="M11005 3046 c-22 -9 -55 -31 -72 -50 -63 -68 -34 -148 72 -201 142
-71 325 -12 325 105 0 74 -107 149 -224 156 -38 3 -76 -1 -101 -10z"/>
<path d="M3851 10898 c-67 -140 -187 -241 -546 -458 -454 -275 -678 -479 -916
-838 -152 -229 -223 -400 -249 -596 -22 -164 21 -305 126 -410 103 -102 280
-208 489 -292 112 -45 126 -48 210 -49 74 0 97 4 130 22 89 48 164 152 293
408 131 260 213 368 436 579 275 259 311 344 327 776 10 290 19 362 53 461 45
130 124 220 326 373 58 44 109 83 114 88 6 4 -163 8 -375 7 l-384 0 -34 -71z
m-124 -784 c45 -34 66 -96 62 -187 -6 -107 -56 -205 -146 -284 -209 -185 -256
-247 -329 -438 -146 -378 -209 -504 -291 -576 -79 -69 -177 -92 -283 -65 -151
38 -289 136 -344 245 -87 170 -34 398 134 575 76 80 147 126 329 213 86 41
183 94 216 118 33 23 118 103 187 177 143 151 207 201 306 235 76 26 111 23
159 -13z"/>
<path d="M3573 10116 c-97 -31 -188 -101 -300 -230 -131 -150 -192 -195 -393
-293 -247 -120 -346 -196 -425 -328 -71 -118 -105 -311 -71 -404 55 -151 239
-277 421 -289 95 -5 146 12 214 73 81 73 125 160 266 525 91 232 134 293 337
473 63 55 84 82 115 144 35 70 38 84 38 157 -1 85 -14 124 -54 160 -26 24 -95
29 -148 12z"/>
<path d="M6018 10954 c19 -8 120 -40 225 -70 205 -60 355 -112 587 -204 360
-143 413 -155 695 -154 163 0 226 4 280 18 195 48 293 142 369 354 l26 72
-170 0 -170 0 -47 -37 c-131 -100 -342 -137 -553 -97 -45 8 -153 41 -239 72
l-156 57 -440 2 c-394 1 -437 0 -407 -13z"/>
<path d="M7005 10924 c187 -71 268 -88 420 -88 173 0 302 36 390 109 l30 24
-480 0 -480 0 120 -45z"/>
<path d="M11904 10903 c-182 -154 -381 -379 -437 -493 -39 -82 -48 -178 -22
-245 23 -61 90 -118 173 -147 61 -21 85 -23 257 -23 168 0 199 3 270 23 220
63 402 235 485 457 54 145 31 330 -57 458 l-26 37 -282 0 -282 0 -79 -67z"/>
<path d="M1030 10759 c-254 -23 -557 -121 -839 -270 -63 -34 -131 -72 -153
-85 l-38 -24 0 -178 0 -177 32 55 c41 73 154 184 253 249 290 191 664 293 960
262 181 -19 318 -64 447 -148 179 -117 254 -293 228 -536 -17 -169 -76 -365
-233 -782 -240 -637 -302 -701 -602 -608 -247 77 -538 275 -699 475 -117 145
-259 392 -342 596 l-44 107 0 -188 0 -187 90 -141 c50 -78 120 -180 157 -228
96 -125 266 -290 438 -426 83 -66 181 -150 218 -188 145 -145 167 -288 75
-472 -105 -208 -308 -356 -563 -410 -85 -18 -310 -25 -378 -12 l-37 8 0 -112
0 -112 132 6 c209 10 385 55 556 141 226 114 372 263 621 634 114 169 153 205
245 224 44 10 69 9 139 -5 213 -42 541 -176 722 -295 86 -57 227 -196 280
-277 123 -186 192 -414 215 -707 53 -666 -322 -1139 -875 -1104 -55 3 -158 18
-230 31 -342 66 -365 69 -540 69 -93 0 -245 -3 -337 -8 -337 -18 -484 39 -820
316 l-108 89 0 -153 0 -153 83 -61 c45 -34 145 -109 222 -168 213 -162 364
-227 488 -211 29 4 118 31 198 60 230 84 253 89 429 90 104 0 201 -7 295 -20
190 -27 490 -28 585 -1 269 75 481 259 609 527 89 186 121 353 121 629 0 472
-88 752 -309 978 -111 113 -255 210 -531 357 -327 174 -427 282 -438 468 -10
171 42 374 214 839 93 251 125 365 148 521 20 132 20 207 0 282 -40 154 -137
243 -360 329 -226 87 -496 127 -724 105z"/>
<path d="M970 10569 c-383 -44 -829 -292 -939 -522 -29 -60 -31 -72 -31 -175
0 -126 15 -186 87 -347 134 -298 297 -538 466 -685 162 -141 409 -278 576
-319 226 -56 291 -8 429 315 96 224 270 708 311 866 63 242 49 452 -40 590
-132 205 -487 320 -859 277z m356 -179 c281 -72 431 -281 411 -575 -12 -165
-83 -402 -193 -633 -156 -331 -319 -448 -554 -398 -194 41 -410 195 -538 383
-59 87 -139 252 -180 372 -33 98 -36 115 -37 226 0 118 1 121 36 196 151 317
670 527 1055 429z"/>
<path d="M975 10386 c-234 -39 -456 -146 -586 -283 -109 -115 -144 -209 -137
-367 4 -81 12 -122 41 -208 106 -314 275 -533 509 -657 113 -60 169 -75 278
-76 88 0 101 3 162 33 107 53 199 165 288 355 195 417 241 759 129 956 -64
112 -180 194 -326 231 -101 26 -255 33 -358 16z m307 -185 c203 -71 310 -271
278 -516 -22 -156 -110 -375 -203 -501 -160 -218 -391 -246 -615 -77 -104 79
-199 221 -248 370 -25 77 -29 103 -29 208 0 110 2 125 27 179 42 88 91 148
171 210 86 66 196 119 292 140 94 21 249 15 327 -13z"/>
<path d="M960 10165 c-171 -38 -349 -168 -412 -301 -32 -66 -33 -73 -32 -189
1 -138 21 -212 95 -340 78 -137 174 -223 297 -266 77 -27 197 -23 262 8 118
58 230 225 306 455 25 75 28 97 28 233 1 145 0 152 -27 207 -36 74 -119 150
-195 178 -74 29 -230 36 -322 15z m208 -241 c47 -19 88 -58 115 -109 18 -33
21 -56 21 -130 -1 -106 -23 -172 -82 -250 -58 -77 -110 -108 -186 -113 -74 -5
-120 14 -178 75 -95 98 -119 246 -59 368 39 79 111 138 201 166 43 13 129 10
168 -7z"/>
<path d="M977 9906 c-89 -32 -164 -112 -188 -200 -15 -55 -6 -152 19 -208 80
-181 269 -218 386 -75 80 97 116 246 87 355 -14 51 -64 110 -108 128 -41 18
-147 17 -196 0z"/>
<path d="M0 9173 l0 -123 74 -102 c111 -153 222 -283 410 -477 229 -236 281
-320 281 -446 -2 -180 -163 -337 -388 -380 -84 -16 -251 -19 -329 -6 l-48 8 0
-92 0 -92 77 -7 c368 -31 660 81 827 318 154 217 153 388 -5 548 -35 35 -134
120 -219 189 -318 255 -431 385 -658 749 l-22 35 0 -122z"/>
<path d="M0 8897 l0 -125 155 -219 c189 -266 247 -373 248 -461 0 -85 -30
-129 -118 -173 -60 -29 -78 -33 -176 -37 l-109 -5 0 -107 0 -107 46 -7 c86
-11 287 -6 353 9 257 61 403 261 335 462 -27 80 -79 146 -260 333 -186 193
-286 308 -401 464 l-73 99 0 -126z"/>
<path d="M0 8323 l0 -421 33 -6 c45 -8 194 12 242 33 51 22 102 81 110 125 10
50 -11 131 -52 206 -29 53 -295 442 -324 475 -5 5 -9 -176 -9 -412z"/>
<path d="M4407 8599 c-74 -17 -152 -62 -213 -124 -157 -156 -183 -369 -72
-589 55 -109 127 -207 323 -441 121 -143 166 -203 270 -355 136 -199 240 -342
335 -461 51 -63 102 -134 115 -159 57 -111 77 -245 64 -422 -19 -259 -65 -460
-180 -783 -79 -221 -108 -332 -119 -456 -23 -269 42 -477 267 -858 117 -198
188 -349 220 -467 24 -89 27 -117 27 -279 1 -199 -7 -252 -74 -536 -88 -370
-92 -594 -14 -841 14 -46 69 -180 121 -298 228 -516 281 -745 255 -1102 -12
-159 -37 -375 -48 -410 -5 -17 32 -18 675 -18 l681 0 0 81 c0 53 -5 92 -16
114 -18 39 -114 132 -283 275 -191 161 -286 284 -338 439 -67 202 -7 423 175
638 52 61 149 144 357 303 240 185 323 280 383 438 21 57 26 88 30 210 2 84
-1 176 -8 224 -18 127 -72 300 -146 469 -36 85 -81 189 -100 231 -136 315
-158 548 -73 769 86 223 266 378 524 450 143 40 243 50 605 59 381 10 500 23
635 66 188 60 321 167 397 318 109 216 117 447 21 573 -101 132 -235 187 -603
248 -585 96 -814 102 -1310 33 -462 -64 -900 -15 -1320 145 -320 123 -530 238
-640 348 -69 71 -102 146 -149 334 -22 88 -70 257 -106 375 -102 332 -119 410
-175 775 -41 268 -74 400 -121 495 -81 162 -210 227 -372 189z m116 -384 c13
-8 37 -39 53 -68 26 -46 29 -62 29 -139 0 -78 -2 -89 -24 -112 -61 -65 -163
-6 -212 124 -23 62 -24 88 -2 141 28 72 94 95 156 54z m1472 -2300 c650 -135
840 -149 1306 -98 308 33 664 37 854 10 147 -20 447 -78 442 -84 -3 -2 -74 9
-158 26 -287 56 -383 65 -649 64 -192 0 -293 -6 -470 -26 -307 -35 -432 -41
-580 -27 -232 21 -384 46 -780 132 -61 13 -136 21 -210 22 -101 1 -121 -2
-168 -23 -101 -46 -155 -132 -290 -461 -187 -459 -206 -525 -206 -745 0 -146
3 -168 28 -250 39 -129 106 -263 240 -480 112 -182 176 -302 190 -355 l6 -25
-12 25 c-65 137 -110 220 -200 366 -188 304 -247 444 -268 639 -20 188 17 342
175 736 178 440 232 527 357 570 85 29 195 25 393 -16z m355 -250 c449 -71
622 -79 935 -45 212 24 558 35 665 22 59 -7 41 -8 -90 -4 -165 5 -361 -6 -625
-34 -271 -29 -455 -19 -868 47 -434 69 -588 56 -719 -60 -115 -102 -286 -433
-349 -677 -18 -70 -23 -116 -23 -214 0 -149 20 -234 90 -374 44 -87 78 -139
249 -381 177 -251 222 -425 180 -703 -8 -53 -37 -208 -64 -343 -77 -378 -86
-546 -41 -723 10 -39 16 -73 15 -74 -6 -7 -36 103 -45 168 -23 154 -11 275 60
626 69 342 84 449 77 569 -11 183 -51 277 -232 535 -240 342 -292 455 -302
665 -9 182 42 368 173 625 78 154 126 227 192 294 134 135 279 152 722 81z
m-105 -290 c99 -18 214 -62 275 -106 56 -41 84 -104 75 -168 -10 -76 -23 -79
-18 -4 9 122 -33 170 -205 234 -80 30 -99 33 -232 37 -131 3 -151 2 -203 -18
-70 -26 -177 -122 -234 -210 -62 -94 -64 -96 -47 -60 28 59 101 155 151 200
117 103 239 129 438 95z m-659 -1900 c19 -84 20 -264 4 -390 -6 -49 -34 -205
-62 -345 -74 -374 -77 -567 -12 -770 13 -41 21 -76 19 -78 -2 -2 -15 31 -28
75 -65 205 -63 398 6 748 92 463 99 603 42 855 l-6 25 11 -25 c6 -14 18 -56
26 -95z"/>
<path d="M4403 8196 c-26 -23 -28 -30 -28 -98 0 -66 4 -81 30 -124 35 -56 89
-96 124 -92 44 5 64 48 64 132 -1 160 -103 257 -190 182z"/>
<path d="M1512 8205 c-66 -29 -95 -60 -194 -209 -245 -366 -390 -514 -624
-633 -174 -89 -365 -138 -581 -150 l-113 -6 0 -426 1 -426 113 -92 c359 -293
500 -340 911 -306 250 20 381 11 675 -48 268 -53 451 -63 581 -30 330 82 558
367 609 761 42 324 -41 751 -191 985 -62 97 -198 234 -294 297 -122 80 -297
161 -495 230 -190 65 -327 84 -398 53z m490 -254 c409 -106 650 -375 750 -834
19 -86 22 -133 22 -302 0 -189 -2 -205 -27 -288 -70 -227 -190 -381 -361 -463
-184 -89 -337 -86 -756 15 -184 44 -315 60 -565 71 -314 13 -408 31 -549 102
-201 101 -373 318 -384 483 -4 66 -2 73 29 120 57 83 108 115 439 273 252 121
380 218 655 500 233 239 313 299 448 337 67 19 195 13 299 -14z"/>
<path d="M1700 7950 c-119 -29 -190 -83 -445 -341 -303 -305 -379 -361 -744
-541 -206 -102 -253 -129 -296 -172 -62 -62 -80 -116 -65 -195 25 -133 170
-317 324 -410 143 -86 243 -107 599 -126 300 -15 352 -23 637 -91 171 -40 213
-47 340 -51 174 -6 230 3 342 59 264 132 407 462 369 851 -50 500 -255 816
-624 961 -142 56 -333 80 -437 56z m336 -190 c222 -57 374 -186 485 -415 84
-173 126 -379 116 -569 -11 -201 -65 -336 -181 -452 -120 -121 -231 -160 -421
-151 -91 5 -154 17 -368 71 -142 36 -366 83 -498 106 -280 48 -374 75 -461
133 -85 57 -120 110 -126 187 -8 108 26 152 298 378 96 80 265 234 376 342
265 260 370 338 507 375 76 20 181 18 273 -5z"/>
<path d="M1807 7759 c-143 -21 -260 -103 -541 -378 -111 -108 -257 -243 -326
-300 -272 -225 -313 -267 -339 -342 -40 -121 53 -241 239 -304 41 -14 143 -37
225 -51 247 -40 401 -72 575 -119 318 -84 477 -99 611 -56 313 100 449 479
333 931 -32 123 -117 296 -188 382 -142 172 -382 268 -589 237z m213 -170
c164 -38 310 -165 390 -343 60 -133 82 -229 84 -366 1 -141 -11 -202 -58 -299
-81 -169 -238 -252 -447 -237 -111 8 -241 40 -466 115 -285 94 -400 157 -443
242 -54 105 -5 224 191 459 207 249 406 406 549 433 47 8 155 6 200 -4z"/>
<path d="M1794 7536 c-145 -46 -324 -201 -536 -465 -98 -122 -138 -195 -145
-268 -10 -93 20 -130 158 -199 81 -41 411 -153 546 -186 120 -29 305 -31 381
-5 71 25 163 110 197 184 136 286 5 745 -256 896 -94 54 -248 73 -345 43z
m249 -266 c226 -114 268 -495 67 -604 -110 -60 -243 -52 -396 24 -134 65 -193
150 -181 258 12 112 126 260 248 321 58 30 71 32 139 29 55 -3 88 -10 123 -28z"/>
<path d="M1833 7276 c-105 -34 -197 -117 -252 -228 -25 -49 -31 -74 -31 -125
0 -75 14 -106 69 -156 107 -96 309 -151 432 -117 236 66 231 467 -8 607 -53
31 -147 40 -210 19z"/>
<path d="M3520 7152 c-23 -11 -45 -34 -62 -67 -34 -62 -37 -72 -94 -325 -76
-343 -112 -456 -200 -633 -127 -256 -307 -464 -529 -612 -112 -74 -189 -114
-353 -184 -286 -123 -347 -163 -394 -266 -33 -71 -30 -214 7 -385 18 -81 29
-169 32 -250 5 -119 4 -127 -18 -159 -46 -67 -93 -86 -278 -117 -328 -53 -542
-32 -829 82 -63 25 -216 96 -342 159 -257 127 -325 147 -410 122 l-45 -13 -3
-218 -2 -218 37 32 c87 77 201 97 348 60 50 -12 198 -60 329 -107 278 -100
371 -127 596 -178 91 -20 194 -48 230 -61 194 -73 325 -230 430 -514 76 -207
142 -321 322 -558 251 -330 324 -488 287 -620 -36 -128 -210 -209 -362 -168
-140 38 -204 119 -352 443 -115 250 -162 326 -257 421 -81 80 -143 124 -244
172 -118 57 -231 87 -474 125 -237 37 -311 53 -433 91 -91 29 -215 88 -283
134 -56 39 -164 139 -164 152 0 6 31 -19 68 -54 173 -163 360 -237 757 -298
292 -46 408 -76 538 -141 111 -55 161 -92 247 -178 96 -97 152 -187 246 -397
102 -229 140 -298 197 -360 68 -75 138 -107 230 -107 169 1 282 92 281 228 -1
125 -67 252 -273 524 -209 278 -245 340 -336 572 -65 166 -108 249 -172 331
-93 122 -196 180 -401 229 -70 16 -175 41 -234 55 -99 24 -242 71 -575 188
-293 103 -438 103 -545 -2 l-38 -36 0 -428 1 -428 37 -24 c171 -108 341 -164
672 -222 275 -49 368 -71 457 -110 149 -66 293 -191 387 -336 68 -105 78 -125
170 -341 85 -199 133 -287 202 -367 99 -116 203 -170 325 -170 98 0 184 20
503 116 309 93 347 98 443 62 70 -26 134 -87 279 -268 227 -282 358 -369 625
-416 181 -31 332 -2 392 77 33 44 57 128 57 200 0 32 -12 120 -26 196 -14 76
-32 174 -40 218 -20 110 -20 310 1 410 22 106 60 203 162 415 47 96 99 216
116 265 29 85 31 98 31 240 0 134 -3 159 -27 238 -36 117 -98 238 -223 435
-175 276 -212 353 -261 540 -26 98 -28 121 -27 287 0 214 18 311 114 635 93
311 103 366 97 545 -3 113 -10 169 -26 230 -47 168 -147 372 -289 590 -187
288 -376 478 -517 521 -61 18 -73 18 -115 -4z m300 -419 c172 -85 400 -432
477 -723 21 -76 26 -120 26 -220 1 -150 -11 -214 -98 -510 -100 -340 -136
-497 -175 -765 -39 -267 -57 -330 -105 -361 -26 -17 -30 -17 -93 3 -37 11
-112 39 -167 63 -212 88 -424 150 -826 240 -332 74 -432 112 -518 198 -68 68
-94 129 -94 216 0 54 5 82 23 116 32 62 118 150 230 233 174 130 294 233 410
353 230 239 348 425 510 809 103 246 151 322 225 363 37 21 117 14 175 -15z
m-860 -2499 c143 -24 253 -59 375 -119 124 -60 208 -124 277 -209 152 -189
226 -522 215 -969 -5 -231 -20 -308 -84 -430 -105 -200 -320 -372 -480 -385
-84 -6 -144 23 -254 127 -91 85 -308 325 -427 474 -93 116 -223 309 -266 396
-77 154 -182 475 -240 732 -51 229 -28 293 123 339 59 19 243 52 346 64 72 7
318 -4 415 -20z m1219 -404 c51 -26 192 -160 253 -240 62 -81 133 -225 152
-310 29 -122 17 -236 -36 -347 -54 -116 -197 -243 -273 -243 -99 0 -176 133
-209 362 -37 251 -48 583 -22 690 25 108 57 128 135 88z"/>
<path d="M3642 6732 c-64 -34 -114 -116 -198 -325 -207 -511 -444 -820 -886
-1155 -174 -132 -242 -197 -273 -264 -45 -97 -28 -215 43 -298 76 -90 196
-142 457 -200 440 -98 619 -149 907 -261 166 -65 226 -79 255 -61 27 17 55
108 74 239 50 352 93 547 194 881 68 225 85 312 92 457 6 144 -8 241 -54 370
-64 177 -192 385 -313 507 -116 117 -215 154 -298 110z m201 -438 c97 -50 176
-157 224 -304 67 -202 52 -370 -69 -755 -54 -174 -131 -369 -169 -430 -121
-194 -275 -239 -591 -174 -177 37 -335 104 -411 177 -67 63 -87 169 -48 256
35 81 88 153 287 396 140 170 216 274 385 524 140 209 206 287 261 311 44 19
92 19 131 -1z"/>
<path d="M3723 6284 c-60 -22 -121 -93 -267 -312 -155 -233 -235 -341 -415
-561 -263 -321 -305 -410 -252 -527 40 -88 186 -173 386 -226 109 -28 135 -32
275 -32 150 -1 157 0 212 27 76 37 129 100 189 222 55 113 151 396 201 590 30
120 33 142 33 285 0 144 -2 161 -28 236 -77 226 -209 343 -334 298z m-48 -754
c19 -36 19 -87 0 -168 -46 -194 -184 -314 -296 -257 -83 43 -50 163 90 336 96
119 173 152 206 89z"/>
<path d="M3585 5536 c-81 -35 -235 -258 -235 -341 0 -50 14 -71 54 -85 79 -26
162 32 221 155 53 108 65 224 27 268 -18 20 -27 21 -67 3z"/>
<path d="M2440 4225 c-215 -30 -315 -63 -354 -118 -46 -64 -1 -306 133 -716
102 -311 254 -542 628 -958 222 -247 312 -311 422 -300 115 12 295 135 399
272 100 133 141 275 149 520 9 250 -23 525 -84 719 -86 276 -275 444 -606 540
-184 54 -473 71 -687 41z m672 -234 c346 -117 532 -436 515 -885 -6 -159 -20
-226 -74 -336 -44 -90 -107 -156 -188 -196 -53 -25 -71 -29 -145 -29 -76 1
-93 5 -160 37 -112 53 -214 136 -348 283 -162 177 -285 444 -311 673 -29 258
68 412 301 477 38 11 90 14 183 12 116 -3 141 -7 227 -36z"/>
<path d="M2720 4004 c-87 -18 -181 -66 -221 -111 -17 -21 -44 -62 -58 -93 -24
-51 -26 -64 -25 -190 1 -158 28 -277 95 -419 93 -199 286 -430 454 -544 141
-95 285 -119 396 -64 111 54 196 175 236 335 26 102 23 367 -5 489 -78 340
-278 544 -586 598 -107 18 -199 18 -286 -1z m341 -210 c170 -50 312 -209 363
-409 23 -85 21 -257 -2 -333 -78 -247 -307 -299 -522 -116 -154 131 -244 291
-272 484 -19 127 8 222 84 301 60 61 127 89 219 89 41 0 100 -7 130 -16z"/>
<path d="M2870 3759 c-70 -14 -128 -56 -164 -119 -29 -52 -31 -61 -31 -160 1
-130 31 -231 103 -341 62 -94 178 -204 251 -237 66 -30 144 -39 196 -22 132
44 202 243 161 460 -41 217 -190 386 -370 419 -67 12 -83 12 -146 0z"/>
<path d="M4081 3814 c-11 -14 -23 -46 -28 -72 -11 -69 -7 -399 6 -537 48 -481
176 -616 383 -404 206 210 190 523 -41 813 -94 117 -227 226 -277 226 -13 0
-32 -12 -43 -26z"/>
<path d="M0 2801 l0 -108 88 -41 c170 -80 288 -116 505 -152 201 -34 297 -60
385 -101 188 -90 292 -265 332 -561 26 -186 -11 -309 -159 -528 -151 -225
-178 -290 -202 -492 -12 -102 -8 -513 7 -725 l7 -93 63 0 64 0 0 203 c0 232
15 354 60 487 56 170 117 262 303 458 149 157 176 204 184 319 4 62 0 99 -20
183 -39 158 -151 494 -197 590 -98 203 -241 330 -446 399 -33 11 -166 38 -295
61 -306 53 -494 108 -636 185 l-43 24 0 -108z"/>
<path d="M0 2550 l0 -129 123 -82 c67 -44 205 -121 306 -170 101 -49 208 -106
237 -125 71 -48 104 -103 104 -175 0 -68 -22 -116 -101 -225 -79 -110 -116
-185 -135 -276 -26 -120 -5 -222 101 -508 94 -255 148 -497 171 -778 l7 -82
69 0 70 0 -6 73 c-18 214 -26 580 -16 687 24 258 47 317 216 562 136 196 159
270 151 468 -11 231 -79 407 -200 516 -99 88 -213 130 -477 174 -233 39 -426
98 -557 171 -29 16 -55 29 -58 29 -3 0 -5 -58 -5 -130z"/>
<path d="M0 1549 l0 -860 28 19 c70 50 161 53 255 9 166 -77 294 -293 342
-577 9 -52 18 -105 21 -117 4 -21 10 -23 80 -23 l75 0 -6 73 c-27 297 -74 510
-180 808 -85 239 -105 310 -105 386 0 123 41 229 153 391 42 59 80 127 87 152
14 51 7 123 -15 156 -27 42 -139 111 -285 179 -152 70 -269 136 -382 217 l-68
48 0 -861z"/>
<path d="M1734 865 c-78 -17 -156 -55 -228 -111 -158 -124 -236 -331 -236
-625 l0 -129 125 0 124 0 -14 41 c-34 97 -8 260 57 351 73 101 154 143 273
142 101 -1 175 -28 244 -90 90 -81 118 -187 74 -284 -22 -50 -99 -150 -115
-150 -5 0 13 25 41 57 110 123 109 277 -2 367 -148 119 -355 121 -463 4 -100
-107 -136 -246 -101 -383 l13 -50 456 -2 455 -3 52 55 c109 115 136 248 77
370 -58 118 -271 303 -455 395 -114 57 -249 73 -377 45z"/>
<path d="M104 731 c-18 -5 -48 -18 -68 -30 l-36 -23 0 -339 c0 -326 1 -339 19
-339 14 0 21 10 26 38 11 58 56 142 91 168 22 17 44 24 77 24 40 0 53 -5 89
-38 40 -36 98 -139 98 -174 0 -16 12 -18 115 -18 133 0 125 -11 101 125 -48
273 -142 451 -291 554 -64 45 -160 67 -221 52z"/>
<path d="M164 210 c-36 -14 -73 -68 -94 -137 -11 -36 -20 -67 -20 -69 0 -2 76
-4 170 -4 105 0 170 4 170 10 0 23 -40 114 -65 146 -43 56 -104 77 -161 54z"/>
</g>
</svg>
