<?xml version="1.0" standalone="no"?>
<!DOCTYPE svg PUBLIC "-//W3C//DTD SVG 20010904//EN"
 "http://www.w3.org/TR/2001/REC-SVG-20010904/DTD/svg10.dtd">
<svg version="1.0" xmlns="http://www.w3.org/2000/svg"
 width="1684.000000pt" height="1180.000000pt" viewBox="0 0 1684.000000 1180.000000"
 preserveAspectRatio="xMidYMid meet">
<metadata>
Created by potrace 1.16, written by Peter Selinger 2001-2019
</metadata>
<g transform="translate(0.000000,1180.000000) scale(0.100000,-0.100000)"
fill="#000000" stroke="none">
<path d="M0 11691 c0 -111 0 -112 26 -121 66 -25 176 -102 245 -170 86 -86
129 -157 166 -280 46 -150 31 -385 -39 -640 -48 -177 -274 -805 -372 -1037
l-26 -62 0 -384 0 -383 58 -1 c219 -6 771 -216 1040 -397 206 -137 368 -323
472 -540 160 -337 229 -871 159 -1231 -90 -459 -346 -782 -719 -908 -106 -36
-286 -61 -385 -53 -128 9 -517 75 -608 102 -16 5 -17 -3 -15 -113 l3 -118 230
-28 c289 -35 553 -34 695 1 264 65 474 201 650 420 267 331 370 782 315 1382
-42 458 -130 694 -351 942 -150 168 -369 321 -719 503 -163 84 -162 84 -284
163 -98 63 -205 167 -244 236 -70 125 -82 242 -46 450 37 218 102 434 249 826
136 360 178 504 210 720 34 233 24 346 -42 478 -36 71 -118 162 -191 209 -27
18 -103 55 -170 84 -112 49 -129 53 -214 57 l-93 4 0 -111z"/>
<path d="M299 11765 c267 -110 393 -239 435 -449 49 -240 -10 -531 -224 -1101
-184 -492 -254 -764 -253 -980 1 -271 111 -394 578 -645 317 -171 382 -211
547 -342 158 -125 294 -289 376 -454 77 -153 138 -408 163 -678 19 -203 6
-549 -25 -704 -64 -314 -184 -553 -384 -764 -303 -317 -650 -417 -1217 -349
-99 12 -206 25 -238 28 l-57 6 0 -168 c0 -146 2 -166 15 -161 66 25 156 39
398 61 401 37 570 76 780 181 137 68 232 138 363 269 291 290 442 632 501
1135 20 174 30 925 13 1056 -12 95 -33 172 -64 232 -76 147 -388 385 -846 647
-343 195 -401 234 -511 344 -180 181 -231 373 -179 675 34 199 88 371 197 621
192 442 390 890 426 960 91 183 208 314 348 391 40 23 173 80 294 128 121 49
222 90 224 92 2 2 -389 4 -870 4 l-874 0 84 -35z"/>
<path d="M2045 11766 c-38 -18 -158 -68 -265 -111 -341 -135 -422 -183 -519
-311 -56 -75 -147 -250 -226 -434 -26 -63 -119 -275 -205 -470 -201 -455 -247
-582 -291 -805 -29 -143 -31 -315 -5 -399 43 -142 120 -250 246 -345 78 -58
124 -87 490 -301 310 -182 532 -340 666 -475 104 -105 142 -166 176 -280 23
-80 23 -83 23 -600 -1 -489 -2 -529 -23 -665 -13 -80 -32 -183 -43 -230 -115
-488 -407 -899 -796 -1118 -234 -131 -448 -185 -880 -222 -132 -12 -265 -29
-309 -40 -42 -11 -79 -20 -81 -20 -1 0 -3 -362 -3 -805 l0 -805 23 4 c12 3 74
15 137 27 126 24 200 55 227 95 25 38 28 160 8 308 -9 70 -21 142 -26 159 -23
80 -51 281 -51 367 0 114 24 199 77 277 67 100 167 161 471 288 466 196 723
384 968 709 218 288 330 573 446 1131 74 358 128 489 225 550 202 126 557
-141 907 -680 218 -336 342 -600 410 -875 20 -82 23 -119 23 -280 0 -221 -11
-275 -112 -610 -166 -548 -205 -839 -153 -1156 41 -250 111 -411 327 -751 218
-342 298 -504 344 -705 33 -141 31 -338 -4 -473 -39 -148 -54 -184 -216 -519
-154 -318 -191 -459 -191 -726 1 -131 10 -217 42 -366 l21 -104 149 0 c137 0
149 1 144 18 -119 418 -107 684 50 1117 23 66 64 176 90 245 129 348 153 611
79 900 -46 179 -115 324 -302 635 -184 306 -253 451 -307 647 -43 151 -59 274
-58 438 1 247 27 378 166 825 79 255 97 351 103 537 11 327 -57 560 -286 983
-152 278 -381 632 -535 824 -56 69 -219 245 -363 391 -144 146 -282 291 -307
324 -117 150 -159 299 -137 480 28 216 105 463 216 691 153 313 276 458 640
756 246 201 336 303 395 447 47 116 51 163 48 540 -2 332 -1 351 21 446 49
213 134 376 269 519 l36 37 -211 0 -210 0 -40 -57 c-125 -179 -143 -269 -163
-803 -6 -151 -14 -301 -19 -332 -41 -246 -159 -437 -420 -673 -275 -250 -388
-400 -577 -771 -217 -427 -326 -542 -521 -552 -124 -7 -248 31 -498 153 -423
206 -600 390 -636 663 -46 345 188 858 619 1355 222 257 479 457 949 741 169
103 400 253 409 267 3 5 -114 9 -288 9 l-293 -1 -70 -33z"/>
<path d="M2666 11745 c-72 -55 -175 -121 -411 -263 -525 -317 -784 -540 -1073
-924 -242 -323 -380 -604 -428 -871 -46 -257 5 -456 157 -608 127 -128 421
-300 671 -393 128 -47 185 -59 271 -54 133 7 227 72 328 224 68 103 70 105
175 310 197 383 241 444 544 744 125 124 243 245 263 270 96 121 165 287 186
445 6 44 13 166 16 270 10 345 23 502 50 601 25 97 76 204 126 267 l30 37
-418 -1 -418 -1 -69 -53z m142 -675 c62 -45 85 -97 90 -208 4 -78 1 -102 -18
-155 -45 -124 -114 -220 -215 -300 -207 -163 -292 -278 -390 -532 -184 -474
-228 -571 -308 -673 -53 -69 -109 -115 -183 -149 -157 -72 -420 2 -598 168
-133 124 -180 257 -157 438 29 229 169 445 379 585 38 25 166 93 285 151 264
129 335 179 497 360 174 194 254 259 389 316 94 41 173 40 229 -1z"/>
<path d="M2629 11071 c-127 -41 -266 -143 -387 -284 -105 -122 -225 -236 -302
-285 -63 -41 -105 -63 -291 -150 -329 -154 -492 -317 -568 -568 -26 -84 -41
-248 -30 -312 33 -175 229 -350 459 -408 91 -23 229 -16 288 15 91 47 185 157
255 296 37 75 92 211 182 450 96 255 173 378 318 507 174 156 242 230 275 300
38 80 51 134 52 205 0 91 -18 152 -60 197 -35 38 -41 40 -101 43 -35 1 -76 -1
-90 -6z"/>
<path d="M3982 11743 c-108 -127 -171 -237 -221 -390 -46 -139 -52 -214 -49
-589 3 -331 2 -341 -21 -419 -60 -204 -148 -313 -466 -575 -278 -230 -419
-384 -533 -585 -137 -241 -224 -483 -271 -747 -26 -146 -26 -204 -1 -304 42
-164 79 -212 410 -549 287 -292 338 -347 452 -500 209 -279 512 -794 626
-1062 86 -204 132 -414 132 -602 0 -196 -31 -349 -145 -711 -86 -276 -119
-434 -131 -635 -11 -204 23 -433 96 -635 63 -174 74 -195 310 -595 222 -377
301 -606 300 -882 0 -203 -39 -378 -150 -663 -120 -309 -162 -461 -181 -654
-19 -192 4 -404 67 -628 5 -16 20 -18 130 -18 l124 0 -6 27 c-4 16 -14 53 -24
83 -54 167 -64 238 -65 440 0 260 17 342 163 794 128 399 147 715 58 1016 -45
156 -97 264 -286 596 -187 328 -245 449 -294 614 -79 266 -90 526 -32 785 32
144 47 197 111 400 130 408 159 616 120 878 -40 266 -143 509 -410 967 -271
465 -360 594 -677 981 -257 315 -336 440 -394 629 -47 153 -44 386 7 550 110
355 307 609 639 825 146 95 153 100 350 215 232 136 326 195 379 239 50 41 91
118 91 171 0 19 -25 107 -55 195 -131 381 -148 452 -149 630 0 113 3 142 28
224 47 161 130 299 278 464 l70 77 -165 0 -165 0 -50 -57z"/>
<path d="M4323 11731 c-143 -157 -236 -303 -284 -446 -22 -64 -24 -86 -24
-250 1 -163 3 -190 28 -285 15 -58 41 -143 58 -190 63 -177 99 -289 105 -327
18 -114 -66 -210 -299 -344 -33 -19 -71 -41 -85 -50 -15 -9 -81 -48 -147 -86
-391 -226 -570 -368 -718 -568 -63 -86 -161 -279 -195 -385 -89 -277 -65 -553
70 -799 70 -128 121 -198 328 -446 191 -228 337 -430 470 -649 19 -32 47 -76
61 -99 220 -356 413 -733 478 -937 92 -291 92 -569 -1 -895 -25 -88 -105 -347
-123 -400 -22 -63 -63 -242 -76 -335 -16 -109 -16 -331 0 -440 34 -239 143
-508 337 -830 142 -238 230 -415 284 -578 80 -243 87 -549 18 -802 -5 -19 -16
-60 -23 -90 -8 -30 -28 -98 -45 -150 -109 -331 -155 -541 -167 -755 -8 -151
29 -380 91 -555 l12 -35 123 -3 c105 -2 123 0 118 12 -13 34 -28 98 -24 103 3
2 8 -11 12 -29 4 -18 14 -45 21 -60 l15 -28 119 0 119 0 -21 46 c-118 267
-164 539 -140 822 13 146 39 289 96 526 104 427 120 724 52 997 -43 173 -94
282 -275 592 -224 384 -293 536 -348 767 -14 58 -18 117 -18 265 0 264 12 312
225 920 80 230 129 454 155 714 31 317 8 523 -72 649 -24 37 -124 168 -210
275 -77 96 -188 249 -308 427 -176 259 -250 355 -510 665 -237 283 -363 489
-405 665 -65 276 38 547 275 715 167 119 384 149 532 74 92 -47 179 -143 237
-261 74 -151 105 -284 176 -743 56 -368 107 -591 205 -895 68 -212 107 -352
136 -485 25 -117 73 -273 102 -330 70 -138 257 -268 652 -450 603 -278 1269
-380 1906 -291 472 66 894 79 1229 38 102 -13 191 -25 199 -28 8 -2 71 -13
140 -24 499 -75 619 -103 781 -185 172 -87 258 -180 310 -334 17 -51 21 -87
21 -185 -1 -136 -8 -185 -46 -301 -31 -93 -71 -175 -124 -254 -144 -211 -335
-328 -647 -396 -149 -33 -278 -43 -609 -50 -630 -12 -839 -43 -1068 -156 -141
-70 -247 -158 -337 -279 -113 -153 -160 -306 -160 -528 0 -243 43 -396 229
-821 173 -394 227 -567 257 -833 17 -147 17 -162 0 -284 -43 -328 -169 -513
-531 -784 -152 -114 -325 -250 -325 -256 0 -2 346 -4 769 -4 723 0 770 1 774
18 4 16 5 16 6 0 1 -17 214 -18 4276 -18 l4275 0 0 5900 0 5900 -780 0 -779 0
-4 -62 -3 -63 -2 62 -2 63 -369 0 -368 0 -7 -78 c-15 -162 -55 -274 -154 -421
-66 -99 -192 -230 -275 -285 -193 -126 -436 -185 -717 -173 -277 12 -452 96
-537 259 -24 47 -27 64 -27 143 0 77 4 101 31 167 35 89 120 221 204 316 l58
67 -146 3 -147 3 -49 -48 c-41 -41 -102 -116 -180 -223 -10 -14 -8 -7 4 15 26
46 109 151 164 210 l38 40 -149 3 -149 3 -52 -55 c-29 -30 -53 -51 -53 -47 0
4 9 16 21 27 12 10 30 31 41 47 l19 27 -159 0 -160 0 -45 -67 c-38 -59 -83
-145 -100 -193 -5 -13 -6 -13 -6 0 -1 22 55 137 93 190 17 25 35 51 40 58 6 9
-25 12 -141 12 l-148 0 -17 -32 c-32 -61 -60 -149 -79 -251 -16 -84 -22 -172
-29 -488 -8 -393 -9 -409 -36 -584 -17 -105 -55 -249 -80 -300 -17 -33 -17
-33 25 115 50 178 62 290 71 705 9 377 15 457 45 591 18 80 64 212 76 220 31
19 -5 24 -143 22 l-152 -3 -9 -35 c-5 -19 -12 -278 -16 -575 -7 -493 -10 -550
-29 -650 -36 -186 -93 -350 -217 -620 -12 -27 -48 -111 -80 -185 -31 -74 -65
-153 -75 -175 -9 -22 -45 -107 -80 -190 -82 -195 -238 -549 -307 -695 -147
-309 -170 -389 -160 -541 7 -99 37 -199 109 -374 27 -66 69 -168 93 -226 209
-509 443 -943 674 -1252 158 -210 236 -364 322 -632 136 -425 202 -603 273
-738 20 -38 33 -74 30 -79 -4 -6 -3 -8 2 -5 6 3 32 -31 59 -76 28 -45 67 -103
88 -129 20 -26 35 -48 33 -48 -3 0 17 -23 44 -51 27 -29 47 -56 43 -62 -3 -5
-2 -7 3 -4 6 3 33 -16 62 -43 32 -29 48 -51 41 -55 -7 -5 -1 -18 17 -36 21
-22 30 -26 41 -17 7 6 16 8 20 4 4 -3 -2 -12 -12 -20 -15 -11 -21 -11 -34 3
-9 9 -32 29 -50 44 -25 21 -31 31 -22 40 6 6 11 16 11 22 0 5 -8 1 -16 -10
-15 -20 -16 -20 -40 9 -20 23 -23 31 -12 38 10 7 9 8 -4 4 -25 -8 -70 36 -62
60 4 14 3 15 -4 6 -7 -11 -16 -5 -40 24 -17 21 -29 41 -26 46 3 4 -1 8 -8 8
-15 0 -121 157 -170 251 -18 35 -36 65 -40 67 -5 2 -8 8 -8 13 0 6 -11 34 -24
62 -74 160 -102 235 -240 657 -32 96 -67 195 -78 220 -38 87 -111 224 -140
265 -245 340 -274 383 -370 550 -101 176 -245 465 -333 670 -7 17 -34 80 -60
140 -26 61 -56 129 -66 152 -11 23 -19 45 -19 48 0 4 -6 21 -14 38 -25 54
-103 260 -110 292 -28 116 -24 271 11 375 8 25 59 140 113 255 124 265 140
300 360 815 158 370 208 485 256 595 94 217 133 342 165 533 20 117 22 159 20
548 -2 373 7 596 25 657 5 16 -8 17 -179 17 l-183 0 8 -72 c5 -40 17 -118 27
-173 82 -429 93 -728 35 -980 -16 -73 -59 -216 -74 -250 -5 -11 -21 -47 -35
-80 -79 -183 -293 -610 -302 -602 -2 2 57 123 130 268 73 145 143 289 156 319
90 206 138 417 147 640 8 192 -5 310 -82 768 l-28 162 -426 0 -426 0 -12 -282
c-15 -349 -49 -634 -107 -883 -136 -583 -147 -642 -147 -811 0 -113 4 -143 26
-218 44 -143 130 -266 229 -326 34 -21 30 -28 -6 -8 -84 44 -189 192 -230 324
-61 194 -44 377 82 909 59 249 97 458 111 612 18 197 40 617 34 650 l-6 33
-155 0 -156 0 7 -57 c38 -340 34 -593 -15 -838 -34 -174 -59 -254 -189 -600
-109 -290 -140 -455 -121 -634 19 -174 60 -276 248 -621 277 -509 327 -725
219 -939 -137 -269 -657 -711 -1024 -870 -138 -59 -169 -66 -302 -66 -156 0
-181 9 -438 152 -412 230 -567 282 -997 338 -499 65 -662 103 -867 206 -123
61 -221 133 -301 220 -115 123 -149 188 -292 554 -26 66 -66 156 -88 199 -49
96 -141 197 -198 220 -38 16 -43 16 -78 -1 -50 -25 -97 -120 -112 -228 -15
-107 -5 -324 21 -461 39 -199 241 -940 317 -1158 99 -285 174 -418 317 -562
157 -158 327 -243 611 -306 87 -19 130 -22 335 -23 209 0 247 3 345 23 130 28
318 74 430 107 186 54 474 137 520 150 93 26 228 46 304 46 120 0 178 -15 499
-125 244 -85 536 -148 897 -196 268 -35 483 -89 643 -161 233 -106 389 -308
461 -600 35 -143 42 -210 71 -684 13 -215 47 -365 118 -530 24 -55 131 -246
172 -306 29 -41 134 -230 162 -289 44 -93 58 -130 79 -214 32 -125 35 -224 10
-330 -23 -97 -85 -241 -100 -232 -5 3 -8 -2 -7 -12 0 -9 -4 -16 -11 -15 -7 2
-10 -4 -7 -12 7 -18 -7 -20 -26 -2 -12 10 -12 9 -1 -5 16 -21 12 -28 -63 -106
-68 -72 -239 -190 -303 -211 -24 -8 -43 -18 -43 -23 0 -4 -5 -8 -11 -8 -5 0
-31 -9 -56 -21 -25 -11 -67 -26 -94 -32 -27 -7 -49 -15 -49 -19 0 -3 -26 -12
-57 -19 -32 -7 -60 -16 -63 -19 -5 -6 -28 -13 -190 -54 -36 -10 -72 -20 -80
-23 -20 -8 -21 -9 -55 -17 -16 -4 -57 -16 -90 -26 -33 -10 -103 -30 -155 -45
-52 -15 -113 -33 -135 -40 -22 -7 -89 -28 -150 -45 -183 -53 -355 -119 -412
-157 -65 -43 -179 -165 -263 -283 -34 -47 -71 -96 -83 -110 -78 -90 -216 -286
-260 -370 -35 -68 -68 -156 -94 -255 -24 -89 -27 -118 -27 -270 0 -148 3 -180
23 -245 69 -226 206 -310 458 -282 97 11 231 47 309 83 22 11 45 19 50 19 5 0
32 11 59 25 28 13 58 25 68 25 9 0 17 5 17 11 0 6 9 8 23 3 12 -3 19 -3 14 1
-4 5 23 21 60 37 38 16 77 33 88 38 45 19 97 32 116 27 12 -3 17 -1 13 5 -5 7
4 9 24 6 23 -3 29 -1 22 7 -7 9 10 15 63 24 39 7 89 17 109 23 20 6 53 8 72 5
20 -3 36 -2 36 4 0 5 49 9 111 9 98 0 110 -2 99 -15 -10 -13 -9 -15 8 -15 12
0 23 4 27 9 3 5 18 9 34 9 22 -1 29 -6 28 -19 -2 -25 -16 -29 -71 -17 -94 20
-404 -9 -500 -47 -21 -9 -48 -13 -60 -9 -11 4 -18 3 -14 -1 4 -4 -34 -22 -85
-40 -93 -33 -138 -51 -212 -85 -62 -28 -79 -33 -92 -31 -7 1 -13 -2 -13 -7 0
-5 -39 -24 -87 -41 -49 -18 -96 -37 -106 -42 -15 -8 -71 -22 -202 -50 -140
-29 -322 24 -406 119 -116 132 -166 391 -123 643 40 239 144 440 388 750 50
64 118 151 151 194 75 97 162 177 240 220 72 40 321 124 620 210 50 14 119 35
155 45 73 22 262 73 360 99 36 9 70 19 75 22 6 4 24 9 40 13 46 10 229 70 235
77 3 3 23 12 44 19 114 37 323 175 389 257 10 13 25 23 33 23 8 0 13 3 12 7
-2 11 24 63 32 63 17 0 100 190 111 255 27 164 -1 343 -78 496 -12 26 -23 51
-23 57 0 5 -6 15 -13 21 -8 6 -20 29 -27 51 -7 22 -16 38 -18 35 -3 -3 -12 7
-19 22 -7 16 -33 60 -57 98 -252 401 -303 567 -326 1056 -16 347 -55 551 -137
717 -92 186 -240 312 -453 385 -146 51 -271 76 -650 132 -371 55 -523 92 -875
210 -362 122 -452 120 -920 -20 -617 -184 -811 -225 -1085 -225 -252 0 -462
45 -678 146 -271 127 -463 346 -588 671 -97 253 -351 1173 -378 1371 -48 344
14 620 153 679 47 20 118 2 173 -44 101 -84 174 -205 263 -433 122 -316 156
-383 251 -494 134 -157 343 -277 594 -341 94 -24 349 -67 465 -80 445 -46 697
-126 1060 -333 279 -158 327 -176 470 -176 119 0 211 26 368 106 359 183 811
592 920 832 80 176 10 425 -249 891 -102 184 -176 340 -209 445 -34 105 -45
295 -25 428 14 93 71 277 145 467 87 224 136 389 172 585 23 123 25 573 4 723
l-14 97 -125 0 -124 0 6 -32 c26 -126 38 -316 33 -508 -4 -181 -8 -217 -32
-305 -56 -211 -142 -389 -313 -653 -44 -69 -111 -213 -129 -277 -42 -155 -23
-349 53 -532 44 -107 56 -154 16 -65 -81 182 -105 273 -106 407 -1 168 46 293
207 553 90 145 183 328 219 432 56 160 72 276 71 500 -1 141 -7 247 -20 340
l-19 135 -125 3 -125 3 12 -108 c21 -173 18 -417 -6 -533 -39 -191 -104 -314
-235 -445 -89 -89 -135 -121 -361 -250 -150 -86 -205 -159 -204 -272 1 -118
63 -304 177 -536 95 -192 124 -241 359 -592 223 -333 278 -618 163 -852 -70
-142 -188 -234 -364 -283 -69 -19 -96 -22 -195 -17 -63 3 -146 12 -185 21 -97
23 -269 64 -335 81 -95 24 -328 54 -540 70 -378 29 -535 53 -678 106 -164 60
-320 184 -417 329 -90 136 -153 281 -315 725 -129 353 -190 495 -372 860 -121
244 -158 305 -220 361 -50 46 -139 84 -196 84 -59 0 -210 -36 -302 -71 -212
-81 -525 -263 -608 -352 -80 -88 -75 -142 51 -517 123 -368 161 -515 192 -745
62 -463 121 -758 207 -1035 55 -177 234 -658 303 -815 36 -81 141 -292 168
-336 73 -119 183 -247 285 -332 256 -214 541 -328 942 -378 284 -35 482 -24
945 51 325 53 495 71 720 77 216 5 312 -6 1040 -117 77 -12 176 -26 220 -33
44 -6 73 -12 65 -14 -9 -2 -63 3 -120 12 -58 9 -166 25 -240 36 -462 69 -689
97 -835 104 -156 8 -402 -11 -692 -55 -109 -17 -243 -37 -298 -45 -55 -8 -131
-20 -170 -27 -113 -21 -585 -18 -710 5 -242 43 -402 94 -580 182 -311 155
-515 368 -680 710 -86 179 -120 260 -198 465 -14 36 -37 96 -52 135 -31 78
-122 351 -154 461 -68 231 -130 535 -161 784 -44 358 -114 643 -249 1012 -93
255 -93 362 3 446 129 113 431 276 676 365 77 28 96 31 205 32 115 0 122 -1
173 -29 54 -30 90 -69 150 -160 37 -57 242 -460 292 -576 18 -41 38 -88 45
-105 46 -105 62 -144 106 -265 27 -74 55 -146 60 -160 6 -14 37 -97 70 -185
32 -88 68 -187 80 -220 34 -90 139 -293 188 -360 97 -134 241 -241 397 -296
94 -33 296 -68 454 -80 236 -17 531 -48 621 -65 46 -9 165 -36 264 -60 237
-56 300 -66 421 -66 224 1 370 73 486 240 92 133 105 352 33 567 -34 101 -91
205 -220 400 -73 110 -157 241 -188 290 -78 128 -198 378 -253 530 -44 120
-48 137 -48 225 -1 86 2 100 26 141 34 57 99 108 258 199 285 163 406 293 482
515 43 125 52 211 45 454 -4 119 -10 237 -13 264 l-7 47 -156 0 -156 0 -17
-127 c-9 -71 -24 -153 -32 -183 -40 -139 -125 -254 -228 -306 -111 -56 -158
-65 -398 -74 -382 -15 -505 -29 -628 -74 -174 -63 -224 -135 -187 -274 40
-144 161 -338 480 -763 205 -273 341 -471 460 -669 38 -63 78 -131 90 -150
100 -159 173 -318 200 -428 22 -92 16 -165 -20 -239 -35 -70 -96 -115 -195
-143 -99 -28 -465 -43 -930 -37 -324 4 -338 5 -425 30 -434 124 -597 374 -859
1317 -15 52 -33 118 -41 145 -52 184 -60 237 -60 415 0 145 3 184 19 230 42
124 89 206 229 399 147 204 164 264 107 379 -39 77 -160 193 -256 244 -38 20
-114 49 -169 64 -86 23 -120 27 -245 27 -127 1 -158 -2 -245 -26 -204 -54
-316 -120 -491 -288 -73 -70 -161 -147 -196 -173 -200 -142 -385 -155 -466
-33 -23 35 -27 51 -27 116 0 66 5 86 32 142 36 73 120 175 266 324 54 55 107
112 118 128 l20 27 -258 0 -258 -1 -62 -68z m7636 -367 c-24 -117 -27 -228
-20 -749 2 -137 -1 -275 -5 -305 -6 -34 -9 137 -9 455 0 506 0 511 24 612 14
57 26 101 29 99 2 -2 -7 -53 -19 -112z m3636 -618 c48 -15 121 -56 100 -56 -5
0 8 -9 30 -19 22 -11 52 -30 67 -43 15 -12 41 -34 57 -47 17 -13 31 -30 31
-38 0 -8 7 -22 16 -31 15 -15 16 -14 9 8 -7 22 -6 23 8 12 9 -8 13 -21 10 -30
-6 -15 -5 -16 12 -2 16 13 18 13 13 0 -9 -29 -39 -22 -81 21 -37 37 -39 41
-17 35 24 -7 24 -6 6 8 -13 11 -23 13 -31 6 -14 -12 -40 12 -27 24 4 5 0 6 -8
5 -8 -2 -35 10 -60 27 -108 75 -148 89 -245 89 -65 -1 -99 -6 -122 -18 -17 -9
-40 -14 -50 -11 -13 4 -14 3 -5 -4 10 -7 6 -12 -17 -22 -17 -7 -31 -15 -31
-19 0 -4 -13 -14 -28 -23 -25 -15 -142 -106 -182 -141 -69 -62 -258 -172 -365
-214 -136 -52 -299 -87 -510 -108 -82 -8 -220 -21 -305 -30 -407 -40 -641 -97
-807 -197 -60 -36 -154 -121 -195 -178 -87 -120 -128 -293 -143 -600 -46 -924
-44 -1064 20 -1380 46 -229 98 -372 176 -487 91 -133 287 -276 424 -309 17 -4
35 -10 40 -15 6 -4 62 -17 125 -30 106 -20 238 -26 415 -18 17 1 39 -1 50 -4
11 -3 25 -6 30 -7 18 -4 -67 -20 -163 -32 -71 -9 -121 -9 -214 0 -124 13 -155
21 -123 32 10 3 -11 7 -46 7 -64 1 -151 27 -236 73 -21 11 -41 20 -45 20 -7 0
-47 25 -108 68 -61 42 -154 142 -200 213 -28 43 -50 80 -50 84 0 3 -9 24 -19
48 -124 268 -184 767 -152 1262 7 99 18 300 26 447 8 148 17 278 19 290 56
260 122 387 259 497 195 155 448 223 1022 276 490 45 622 74 825 181 92 49
153 89 249 168 113 92 193 146 205 139 6 -3 8 -2 3 2 -10 11 65 54 133 75 62
20 130 19 205 -4z m-10131 -874 c233 -105 440 -414 639 -957 85 -231 113 -300
153 -384 165 -347 421 -520 865 -585 57 -9 178 -22 269 -31 336 -32 600 -95
945 -224 44 -16 127 -42 185 -58 90 -24 124 -27 240 -27 119 0 145 3 217 27
299 97 527 306 614 562 21 61 24 89 24 215 0 119 -4 161 -23 235 -40 158 -99
290 -231 523 -51 90 -91 165 -89 167 4 5 177 -298 217 -381 33 -69 82 -193
105 -270 44 -146 47 -377 6 -494 -91 -258 -316 -467 -605 -562 -153 -51 -347
-50 -510 2 -93 30 -230 76 -340 114 -256 88 -427 122 -815 160 -456 46 -710
142 -898 340 -126 133 -201 277 -332 636 -166 455 -336 756 -503 888 -106 84
-158 106 -260 111 -83 3 -93 1 -152 -28 -107 -53 -172 -153 -201 -306 -14 -76
-16 -135 -11 -380 9 -470 53 -815 141 -1115 193 -652 401 -1168 556 -1374 230
-307 503 -463 945 -537 103 -18 171 -22 330 -22 229 -1 372 18 730 94 98 21
273 49 460 75 163 22 213 25 350 20 92 -3 205 -14 265 -25 246 -46 347 -64
545 -97 354 -58 431 -72 406 -73 -43 -2 -531 77 -767 124 -224 45 -317 55
-509 54 -222 0 -383 -21 -775 -98 -418 -83 -476 -91 -700 -91 -605 0 -1049
207 -1324 618 -127 190 -308 623 -453 1087 -167 532 -207 778 -219 1355 -8
336 1 414 61 535 91 183 274 255 449 177z m-1445 -392 c187 -35 336 -195 442
-476 40 -107 82 -291 129 -574 67 -405 159 -745 303 -1120 104 -272 129 -333
185 -466 87 -203 161 -325 276 -457 160 -185 434 -364 701 -457 420 -147 944
-184 1435 -100 30 5 154 22 275 37 195 24 253 28 510 28 295 0 409 -10 705
-60 47 -8 137 -22 200 -31 199 -29 209 -31 174 -33 -17 0 -56 4 -85 9 -30 6
-117 19 -194 30 -77 10 -228 31 -335 46 -174 25 -223 28 -455 28 -273 -1 -353
-8 -875 -81 -171 -23 -228 -27 -465 -27 -290 -1 -406 11 -646 68 -470 112
-849 354 -1069 683 -94 139 -157 274 -292 618 -199 508 -286 816 -378 1345
-60 345 -89 461 -157 609 -68 150 -171 271 -274 323 -295 147 -839 -100 -1051
-477 -82 -145 -121 -289 -120 -445 0 -253 93 -461 352 -790 332 -421 385 -501
827 -1250 343 -581 400 -948 233 -1510 -12 -41 -48 -154 -80 -250 -109 -328
-133 -447 -133 -675 0 -349 64 -533 374 -1080 69 -121 142 -255 162 -297 155
-324 193 -681 111 -1043 -27 -117 -53 -201 -54 -173 0 10 6 37 14 60 15 43 38
163 58 293 5 39 8 148 5 245 -5 202 -24 301 -89 475 -38 101 -147 326 -188
385 -38 55 -195 338 -235 424 -62 133 -71 153 -98 236 -67 199 -81 300 -75
529 6 213 25 298 145 660 68 206 111 365 133 490 27 155 27 358 0 512 -48 263
-124 429 -448 969 -314 523 -367 601 -675 989 -279 352 -389 627 -357 891 47
385 336 718 740 850 146 48 240 59 339 40z m2526 -1960 c668 -62 839 -91 1030
-179 97 -45 141 -75 210 -146 68 -68 89 -114 90 -195 0 -53 -5 -73 -27 -111
-89 -151 -381 -309 -673 -364 -117 -22 -354 -20 -480 4 -245 47 -477 195 -577
366 -76 131 -116 306 -96 414 24 129 84 191 213 217 80 16 71 16 310 -6z
m6032 -5671 c193 -73 252 -248 115 -339 -70 -46 -140 -63 -243 -58 -76 4 -98
9 -156 39 -96 48 -128 96 -128 189 0 65 2 71 35 106 84 88 239 114 377 63z"/>
<path d="M6221 7510 c-94 -22 -140 -63 -172 -155 -37 -106 -15 -256 61 -412
99 -202 316 -348 600 -404 82 -16 371 -17 466 -1 145 24 364 109 483 186 228
149 266 305 113 468 -83 89 -252 173 -427 213 -91 21 -384 61 -555 75 -74 6
-191 18 -260 26 -134 15 -255 17 -309 4z"/>
<path d="M12317 1839 c-20 -6 -58 -30 -84 -53 -42 -38 -46 -47 -50 -96 -6 -65
16 -104 85 -157 113 -86 325 -84 423 4 70 63 69 136 -1 208 -69 70 -134 97
-243 101 -51 2 -109 -2 -130 -7z"/>
<path d="M4891 11759 c-18 -22 -93 -103 -167 -180 -187 -195 -244 -290 -244
-405 0 -77 32 -129 102 -165 48 -24 90 -24 172 1 122 38 192 87 384 268 143
134 173 158 262 205 139 73 350 127 498 127 303 -1 636 -194 698 -406 27 -95
-1 -174 -116 -324 -202 -266 -262 -411 -262 -635 0 -160 48 -406 127 -650 7
-22 28 -89 45 -150 171 -587 333 -867 573 -991 154 -80 288 -105 602 -111 253
-6 768 10 889 27 135 20 241 91 267 182 19 67 7 218 -24 293 -28 69 -128 258
-201 380 -172 286 -306 481 -612 886 -189 252 -264 367 -355 550 -51 102 -63
192 -34 252 63 133 327 206 745 207 108 0 307 19 375 36 60 14 149 67 197 117
87 90 137 236 154 444 l7 83 -244 0 -244 0 -44 -45 c-60 -60 -184 -121 -296
-145 -142 -30 -367 -43 -534 -30 -226 17 -372 54 -644 164 l-139 56 -952 0
-953 0 -32 -41z m2169 -1459 c135 -40 307 -160 491 -342 127 -125 156 -157
240 -273 130 -179 216 -338 264 -485 39 -117 41 -262 7 -330 -69 -133 -215
-214 -456 -251 -171 -27 -290 -22 -401 15 -299 101 -493 403 -591 920 -65 347
-34 572 95 688 96 87 198 103 351 58z"/>
<path d="M6838 10300 c-71 -18 -141 -74 -186 -151 -112 -187 -29 -791 155
-1138 96 -182 236 -304 418 -366 67 -23 256 -31 370 -16 222 30 394 123 451
246 102 217 -112 681 -486 1055 -182 181 -344 298 -481 346 -77 27 -186 38
-241 24z m459 -791 c126 -61 207 -231 156 -328 -54 -103 -173 -98 -269 12 -99
112 -98 286 1 327 34 14 67 11 112 -11z"/>
<path d="M7180 9497 c-34 -17 -50 -53 -50 -113 0 -75 26 -140 79 -195 73 -75
147 -87 207 -35 23 19 28 33 32 85 4 54 1 69 -27 125 -54 111 -165 172 -241
133z"/>
<path d="M6910 11784 c19 -9 64 -27 100 -40 325 -124 439 -146 750 -147 349
-2 556 50 669 167 l35 36 -795 0 c-724 -1 -791 -2 -759 -16z"/>
<path d="M13105 11713 c-95 -107 -173 -226 -209 -315 -38 -96 -38 -208 -1
-283 32 -66 89 -119 170 -156 88 -41 178 -58 345 -62 233 -6 393 24 558 103
272 130 487 434 509 718 l6 82 -237 0 c-231 0 -236 0 -226 -19 5 -11 10 -23
10 -28 -1 -4 -8 4 -16 20 l-15 27 -167 0 c-196 0 -192 1 -305 -113 -39 -40
-61 -58 -50 -42 23 33 91 99 137 133 l29 22 -230 0 -231 0 -77 -87z"/>
<path d="M0 11412 l0 -148 41 -39 c177 -173 224 -459 133 -819 -26 -101 -107
-338 -150 -434 -23 -53 -24 -62 -24 -296 l1 -241 40 100 c22 55 63 161 90 235
27 74 56 151 64 170 8 19 33 89 56 155 159 461 182 562 183 800 1 154 -1 177
-23 240 -61 179 -178 307 -368 404 l-43 21 0 -148z"/>
<path d="M0 10610 c0 -362 4 -629 9 -620 20 35 115 313 141 415 88 344 51 615
-110 795 l-40 45 0 -635z"/>
<path d="M3692 9080 c-106 -28 -187 -75 -268 -155 -75 -75 -117 -141 -154
-245 -20 -54 -23 -85 -23 -185 0 -104 4 -131 28 -205 61 -187 140 -307 440
-665 200 -239 260 -319 435 -575 155 -227 265 -378 400 -545 125 -156 133
-168 164 -245 67 -163 82 -352 50 -634 -34 -303 -85 -506 -224 -892 -120 -332
-160 -509 -160 -708 0 -309 76 -530 333 -971 191 -327 264 -484 313 -670 22
-85 27 -129 31 -286 7 -253 -10 -389 -97 -749 -64 -269 -90 -451 -90 -639 0
-222 31 -373 133 -633 l30 -78 154 0 154 0 -5 23 -6 22 11 -23 12 -22 467 0
467 0 114 90 c62 50 117 90 122 90 4 0 -27 -27 -70 -59 -43 -33 -94 -73 -113
-90 l-35 -30 175 -1 176 0 76 63 c41 34 170 135 286 225 353 274 457 408 511
656 39 181 22 464 -40 681 -34 117 -61 198 -75 230 -7 17 -22 54 -33 83 -12
29 -63 148 -115 265 -153 345 -204 522 -213 738 -6 140 3 215 43 336 117 361
390 580 841 674 113 23 298 35 788 49 432 13 576 32 754 100 295 114 491 347
555 662 19 90 21 244 5 320 -36 171 -169 298 -408 388 -121 46 -523 118 -1016
181 -291 38 -741 23 -1135 -35 -190 -29 -339 -40 -530 -39 -512 0 -943 98
-1470 333 -261 116 -445 225 -548 324 -124 119 -146 166 -231 497 -33 129 -68
263 -79 299 -11 36 -44 142 -72 235 -102 329 -139 501 -210 960 -54 355 -101
531 -174 655 -109 186 -272 255 -474 200z m152 -489 c66 -41 115 -139 123
-248 10 -129 -34 -213 -111 -213 -38 0 -115 46 -143 86 -98 139 -107 267 -24
354 33 35 44 40 81 40 25 0 56 -8 74 -19z m1849 -2990 c60 -12 111 -23 115
-25 17 -10 475 -97 640 -121 318 -46 668 -48 1017 -6 94 12 289 29 435 38 270
17 434 13 670 -18 232 -30 668 -114 655 -127 -2 -3 -35 3 -73 12 -167 40 -548
101 -726 116 -221 17 -630 8 -817 -20 -153 -23 -515 -52 -649 -52 -286 -1
-638 49 -1150 163 -247 55 -469 62 -565 20 -68 -30 -109 -63 -155 -126 -43
-58 -113 -191 -155 -295 -14 -36 -30 -74 -35 -85 -12 -25 -113 -276 -152 -375
-57 -145 -120 -336 -140 -430 -30 -131 -32 -399 -5 -510 51 -206 148 -415 317
-680 241 -378 316 -558 341 -819 16 -174 -12 -439 -86 -786 -73 -344 -79 -387
-79 -615 -1 -232 12 -318 70 -484 14 -38 23 -71 21 -73 -11 -10 -67 172 -93
302 -14 72 -20 363 -8 459 6 56 49 288 64 351 48 195 100 575 100 730 0 306
-71 503 -327 909 -17 28 -46 76 -64 106 -17 30 -37 62 -44 70 -34 39 -148 279
-183 385 -99 297 -95 507 18 860 24 75 179 474 210 540 5 11 25 58 43 105 54
135 136 293 183 354 53 67 104 102 193 134 59 21 78 22 186 18 66 -3 169 -14
228 -25z m282 -306 c66 -8 145 -20 175 -25 83 -15 349 -56 495 -77 179 -25
626 -26 800 -1 400 56 926 53 1150 -7 68 -18 26 -18 -52 0 -155 36 -613 44
-903 15 -561 -56 -613 -58 -850 -35 -150 15 -256 29 -685 94 -240 37 -482 43
-576 15 -156 -46 -275 -156 -391 -359 -130 -229 -229 -466 -279 -670 -33 -131
-33 -364 0 -485 55 -209 120 -329 359 -663 222 -311 276 -423 308 -640 24
-161 11 -284 -72 -692 -108 -535 -108 -530 -107 -755 0 -189 3 -220 38 -344
50 -179 189 -361 324 -423 47 -22 71 -27 146 -27 50 -1 110 2 135 6 39 6 41 6
20 -4 -14 -7 -75 -12 -140 -12 -110 -1 -118 1 -176 31 -101 53 -208 174 -274
312 -65 136 -90 263 -90 464 0 154 13 263 51 452 123 597 133 661 133 855 1
161 -1 183 -27 271 -40 141 -109 268 -247 454 -287 386 -397 612 -418 860 -15
165 3 300 64 480 80 240 220 525 334 680 88 118 224 210 345 233 78 15 278 13
410 -3z m102 -416 c155 -18 360 -105 428 -181 54 -59 67 -137 41 -233 -24 -85
-40 -116 -257 -492 -11 -18 -27 -48 -38 -65 -156 -271 -190 -325 -263 -410
-27 -32 -77 -74 -111 -95 -59 -36 -66 -38 -147 -37 -78 0 -91 3 -160 38 -54
28 -98 62 -157 121 -46 45 -83 88 -83 95 0 7 18 -10 41 -38 46 -59 144 -135
227 -177 81 -41 174 -42 251 -1 96 50 158 120 287 326 12 19 59 100 104 180
46 80 102 178 126 217 24 40 44 75 44 79 0 3 17 33 37 66 75 121 107 244 89
341 -22 117 -255 235 -509 257 -316 27 -447 -39 -655 -329 -48 -67 -39 -40 13
38 67 102 154 191 231 237 137 81 218 92 461 63z m2698 -370 c-89 -30 -241
-43 -790 -69 -197 -9 -410 -38 -515 -69 -51 -16 -61 -12 -15 5 52 19 207 50
315 63 47 6 238 17 425 26 309 15 549 36 563 50 3 3 15 5 26 4 16 -1 14 -3 -9
-10z m333 -259 c-43 -25 -282 -50 -573 -60 -467 -15 -531 -19 -670 -39 -143
-21 -256 -49 -353 -88 -35 -13 -66 -23 -68 -21 -6 6 120 53 206 77 193 54 308
65 815 81 313 10 482 23 582 45 74 16 82 17 61 5z"/>
<path d="M3700 8562 c-76 -77 -60 -236 36 -341 42 -48 81 -71 118 -71 69 0 91
41 90 170 -1 114 -25 181 -85 235 -33 29 -47 35 -85 35 -37 0 -51 -5 -74 -28z"/>
<path d="M0 8390 l0 -200 48 24 c202 102 510 69 816 -87 364 -186 584 -508
683 -1005 25 -125 28 -156 28 -367 0 -219 -1 -235 -27 -330 -87 -319 -244
-534 -473 -645 -143 -69 -217 -85 -395 -84 -169 1 -232 11 -498 75 -89 21
-167 39 -173 39 -6 0 -9 -39 -7 -102 l3 -102 90 -17 c50 -9 155 -29 235 -44
470 -88 783 -18 1043 234 180 173 312 452 346 731 15 119 13 424 -4 560 -75
612 -331 998 -830 1248 -282 142 -679 272 -826 272 l-59 0 0 -200z"/>
<path d="M160 8234 c-30 -8 -79 -26 -108 -40 l-52 -25 0 -146 0 -145 33 22
c101 67 267 120 376 120 137 0 319 -54 455 -134 84 -50 212 -168 271 -250 150
-211 245 -507 262 -811 12 -230 -53 -475 -167 -630 -103 -139 -243 -232 -402
-265 -168 -36 -299 -23 -625 61 -106 27 -195 49 -198 49 -3 0 -5 -46 -5 -103
l0 -104 98 -22 c53 -13 155 -37 227 -53 115 -27 153 -32 321 -36 202 -4 240 1
367 48 117 44 265 163 353 285 86 118 161 327 183 505 39 311 -29 727 -164
1006 -172 355 -467 580 -872 663 -120 25 -271 27 -353 5z"/>
<path d="M314 7991 c-82 -13 -153 -40 -237 -89 l-77 -46 0 -124 0 -124 22 16
c58 41 164 99 226 124 61 24 79 26 202 27 129 0 138 -2 216 -33 223 -89 369
-250 469 -517 49 -132 64 -203 72 -335 9 -184 -14 -317 -79 -445 -104 -204
-274 -304 -515 -305 -145 0 -293 28 -535 104 l-78 24 0 -103 c0 -98 1 -103 23
-108 12 -2 73 -19 135 -36 221 -61 354 -83 507 -84 124 0 149 3 220 26 151 50
256 130 346 267 142 215 181 511 113 855 -64 325 -231 614 -437 754 -166 113
-422 179 -593 152z"/>
<path d="M321 7704 c-71 -16 -187 -74 -268 -135 l-53 -40 1 -227 c0 -125 3
-220 7 -212 32 70 115 164 192 217 85 58 166 85 253 86 69 0 86 -4 151 -36
135 -67 227 -198 263 -376 14 -70 14 -95 4 -159 -25 -161 -103 -254 -252 -298
-153 -46 -408 21 -559 147 l-60 50 0 -195 0 -195 43 -11 c23 -6 53 -15 67 -20
53 -20 199 -59 275 -73 284 -54 477 -16 604 118 135 142 191 398 142 650 -40
211 -103 357 -208 488 -150 187 -377 270 -602 221z"/>
<path d="M435 7373 c-166 -28 -265 -86 -354 -207 -76 -102 -81 -120 -81 -273
l0 -139 47 -45 c119 -111 248 -166 419 -176 119 -7 172 4 244 48 174 107 197
397 49 618 -76 114 -221 192 -324 174z"/>
<path d="M2575 7213 c-35 -9 -82 -51 -108 -95 -44 -77 -65 -149 -132 -463 -85
-397 -155 -614 -271 -834 -114 -215 -268 -420 -432 -571 -214 -197 -398 -306
-792 -470 -198 -82 -278 -127 -346 -195 -91 -90 -109 -143 -108 -310 1 -102 8
-164 33 -290 49 -247 53 -277 49 -403 -3 -105 -6 -121 -27 -153 -49 -72 -128
-107 -321 -139 -63 -11 -116 -20 -117 -20 -2 0 -3 -100 -3 -222 l0 -223 67
-35 c85 -45 218 -170 279 -262 79 -120 120 -208 210 -448 33 -90 124 -269 184
-364 24 -38 96 -137 160 -221 330 -430 425 -605 425 -785 0 -76 -3 -90 -28
-133 -54 -89 -154 -154 -275 -179 -118 -23 -257 19 -353 109 -98 91 -152 183
-284 478 -136 305 -201 415 -317 535 l-63 65 -3 -246 -2 -246 49 -89 c27 -49
77 -154 111 -234 134 -318 160 -371 238 -488 65 -98 188 -216 264 -254 54 -28
57 -28 254 -28 236 0 172 -14 724 155 267 82 330 92 423 71 93 -22 146 -55
236 -148 l75 -78 733 0 c699 0 733 1 733 18 0 10 -9 58 -19 107 -62 287 -52
545 31 790 22 66 93 230 158 365 134 278 161 350 190 489 62 304 -16 585 -274
991 -281 442 -331 544 -392 805 -26 112 -28 134 -28 340 0 187 3 238 23 340
29 157 59 272 122 480 119 396 144 530 136 735 -9 239 -59 406 -212 711 -138
276 -348 584 -531 778 -169 180 -366 291 -469 264z m349 -557 c237 -115 528
-550 636 -951 34 -126 45 -274 32 -407 -13 -130 -34 -226 -104 -463 -168 -574
-185 -648 -258 -1125 -42 -277 -70 -378 -117 -419 -47 -40 -94 -30 -353 79
-80 34 -122 49 -265 97 -217 73 -417 127 -700 189 -267 58 -296 65 -425 100
-239 66 -379 159 -451 300 -32 63 -34 74 -34 164 0 87 3 101 32 160 42 85 144
185 340 332 297 223 486 400 664 619 216 267 323 456 501 884 16 39 33 79 38
90 4 11 34 73 65 137 114 234 230 295 399 214z m-1119 -3268 c327 -51 617
-181 791 -353 174 -172 263 -386 326 -775 20 -130 23 -179 23 -475 0 -325 0
-331 -27 -432 -78 -300 -264 -530 -540 -671 -92 -46 -95 -47 -188 -47 -79 0
-102 4 -137 22 -111 60 -277 224 -574 568 -469 543 -600 803 -800 1573 -71
276 -65 420 19 480 67 48 295 103 548 132 119 13 409 2 559 -22z m1577 -517
c143 -61 387 -330 477 -525 16 -33 40 -95 54 -136 102 -299 0 -614 -253 -784
-143 -96 -230 -68 -315 101 -84 169 -129 488 -129 923 l-1 285 27 64 c41 94
62 106 140 72z"/>
<path d="M2712 6653 c-80 -39 -164 -173 -267 -428 -162 -401 -320 -677 -534
-933 -177 -210 -366 -385 -637 -588 -189 -142 -301 -248 -339 -324 -22 -43
-29 -73 -33 -138 -4 -74 -1 -92 23 -154 38 -98 118 -178 235 -235 120 -59 193
-81 545 -159 242 -54 492 -117 635 -160 147 -44 172 -53 365 -130 88 -34 191
-74 229 -88 66 -25 127 -33 161 -20 40 16 92 181 110 354 3 36 18 133 31 215
51 313 93 489 209 875 96 319 135 516 135 684 0 123 -43 341 -90 451 -161 382
-385 678 -580 769 -65 30 -148 34 -198 9z m257 -578 c32 -15 78 -50 115 -88
176 -182 255 -468 215 -778 -20 -156 -108 -470 -214 -769 -130 -363 -251 -513
-452 -555 -208 -44 -584 19 -822 140 -181 91 -261 187 -261 315 0 123 77 251
351 585 246 300 320 401 630 860 195 289 296 356 438 290z"/>
<path d="M2834 6071 c-93 -23 -159 -97 -376 -421 -212 -318 -316 -458 -553
-745 -262 -317 -325 -422 -333 -545 -5 -93 17 -147 86 -212 156 -146 508 -258
811 -258 225 0 334 52 442 211 88 131 188 398 320 859 58 205 76 449 43 608
-18 89 -69 222 -116 300 -93 154 -214 230 -324 203z m-87 -996 c28 -49 29 -96
4 -200 -47 -196 -134 -319 -255 -360 -49 -17 -55 -17 -103 -1 -74 24 -88 45
-87 122 1 51 7 76 34 126 67 130 208 300 279 338 20 11 51 19 71 17 29 -2 38
-9 57 -42z"/>
<path d="M2630 5089 c-34 -14 -80 -59 -160 -160 -123 -154 -176 -292 -135
-355 39 -60 134 -67 216 -15 85 53 171 217 190 362 20 143 -20 204 -111 168z"/>
<path d="M1335 3394 c-22 -2 -89 -9 -148 -14 -122 -12 -329 -52 -397 -77 -25
-9 -60 -27 -78 -40 -90 -66 -89 -153 3 -523 71 -288 182 -620 260 -779 114
-232 353 -551 708 -945 180 -199 275 -286 369 -337 57 -31 71 -34 138 -33 93
1 180 35 295 115 231 159 383 386 424 634 59 354 20 903 -90 1238 -106 325
-315 526 -684 657 -114 40 -273 76 -395 89 -111 12 -347 21 -405 15z m444
-274 c411 -44 712 -283 837 -668 57 -172 68 -251 68 -477 1 -224 -7 -279 -60
-422 -71 -189 -192 -313 -353 -359 -115 -34 -285 -2 -406 75 -141 90 -363 300
-466 441 -208 284 -319 588 -319 874 0 137 24 229 84 319 75 113 238 197 422
216 43 5 84 9 89 9 6 1 52 -3 104 -8z"/>
<path d="M1590 3104 c-185 -34 -272 -69 -353 -144 -109 -100 -143 -209 -134
-428 16 -368 188 -723 499 -1029 244 -241 446 -339 629 -305 185 35 324 178
398 412 60 192 55 550 -12 790 -87 312 -294 544 -575 645 -119 42 -366 75
-452 59z m307 -280 c130 -27 215 -74 313 -173 174 -177 259 -423 231 -674 -18
-159 -67 -266 -160 -350 -131 -117 -338 -101 -518 41 -125 100 -250 256 -309
388 -62 138 -97 350 -75 453 42 196 199 326 399 330 24 1 77 -6 119 -15z"/>
<path d="M1710 2770 c-156 -29 -248 -131 -270 -301 -37 -292 177 -675 455
-816 82 -42 183 -55 260 -33 90 25 172 124 211 255 26 87 24 272 -4 386 -59
242 -206 420 -404 488 -66 23 -185 33 -248 21z"/>
<path d="M3282 2845 c-42 -53 -47 -95 -46 -385 1 -585 70 -937 202 -1038 29
-22 46 -27 91 -27 71 0 113 21 193 95 279 255 287 644 23 1020 -123 174 -315
345 -402 357 -35 5 -43 2 -61 -22z"/>
<path d="M0 2209 l0 -591 76 -81 c130 -138 189 -239 334 -567 120 -271 174
-363 259 -444 129 -120 302 -146 471 -70 102 46 170 141 172 242 2 66 -29 185
-68 265 -49 99 -181 295 -343 506 -212 276 -292 416 -397 699 -113 302 -255
500 -429 597 -34 19 -65 35 -68 35 -4 0 -7 -266 -7 -591z"/>
<path d="M2 613 l3 -348 39 -132 40 -133 250 0 251 1 -30 25 c-162 136 -263
284 -380 559 -94 222 -159 366 -167 371 -5 3 -7 -151 -6 -343z"/>
<path d="M1885 166 c-60 -14 -324 -93 -465 -139 l-75 -25 473 -1 474 -1 -31
39 c-32 40 -118 103 -165 121 -46 17 -149 20 -211 6z"/>
</g>
</svg>
